<svg version="1.1" xmlns="http://www.w3.org/2000/svg" xmlns:xlink="http://www.w3.org/1999/xlink" viewBox="0 0 172 172"><g fill="none" fill-rule="nonzero" stroke="none" stroke-width="none" stroke-linecap="none" stroke-linejoin="none" stroke-miterlimit="10" stroke-dasharray="" stroke-dashoffset="0" font-family="none" font-weight="none" font-size="none" text-anchor="none" style="mix-blend-mode: normal"><path d="M0,172v-172h172v172z" fill="none" stroke="none" stroke-width="1" stroke-linecap="butt" stroke-linejoin="miter"></path><g><path d="M53.61928,169.97556c-3.2594,0 -6.42076,-1.161 -8.90444,-3.27144l-17.458,-14.8092c-3.72552,-3.15792 -5.80672,-7.80536 -4.945,-12.61448l4.84008,-27.047c0.22876,-1.28656 0.65876,-2.55076 1.27968,-3.76508c0.00516,-0.01032 4.54596,-10.76892 4.54596,-10.76892l-7.34096,-7.34096c-4.3172,-4.31548 -6.69768,-10.05856 -6.69768,-16.16628c0,-6.106 2.37876,-11.84736 6.6994,-16.16628c4.31548,-4.3172 10.05684,-6.69596 16.16456,-6.69596c6.10772,0 11.85252,2.37876 16.168,6.69768l3.00656,3.00828c1.98316,-1.61164 4.43932,-2.4854 7.02964,-2.4854c1.11112,0 2.19816,0.16168 3.2336,0.473c0.8858,-0.4214 1.83008,-0.72584 2.81392,-0.903l0.63468,-1.85416c1.33472,-3.88376 4.65948,-6.66844 8.59656,-7.3788l0.63468,-1.85416c1.33128,-3.88548 4.65948,-6.6736 8.60172,-7.38052l0.63812,-1.85932c1.32956,-3.88204 4.65604,-6.66844 8.59828,-7.37708l0.6364,-1.85932c1.32956,-3.88032 4.65604,-6.66672 8.6,-7.37708c0.25284,-0.75164 0.64672,-1.88856 1.27108,-3.1734c1.86792,-3.827 5.81016,-6.29176 10.05168,-6.29176c0.82388,0 1.64776,0.09116 2.45272,0.27348c2.7606,-2.08636 5.71728,-3.70144 8.08228,-4.82976c1.49812,-0.7138 3.15964,-1.08876 4.81256,-1.08876c3.57932,0 6.966,1.74924 9.05408,4.62164c2.76232,0.15652 5.49024,0.70692 8.13388,1.63916c4.7042,1.66324 7.70388,6.2436 7.43728,11.14388c2.021,1.87308 3.78056,4.04028 5.21676,6.43624c2.56108,4.2828 1.9522,9.718 -1.37428,13.32312c0.3612,2.71072 0.34228,5.48852 -0.06708,8.24224c-0.688,4.66636 -4.2226,8.32996 -8.7118,9.29144l-0.9374,2.73824c-1.32784,3.88204 -4.65432,6.6736 -8.59828,7.38224l-0.63468,1.85244c-1.32612,3.88204 -4.65432,6.6736 -8.59656,7.38052l-0.63296,1.85072c-1.33128,3.88376 -4.65948,6.67188 -8.60172,7.38052l-0.63812,1.86104c-1.32956,3.88376 -4.65776,6.67188 -8.6,7.3788l-0.63468,1.8576c-0.59684,1.74064 -1.59444,3.26284 -2.86896,4.47544c0.18404,0.81356 0.28036,1.65464 0.28036,2.50948c0,2.98764 -1.16444,5.7964 -3.2766,7.90856l-28.71712,28.71196l-21.47076,21.81304c-2.60752,2.6488 -6.09052,4.10736 -9.80744,4.10736z" fill="#000000" stroke="none" stroke-width="1" stroke-linecap="butt" stroke-linejoin="miter" opacity="0.35"></path><path d="M49.87828,166.84c-3.2594,0 -6.42076,-1.161 -8.90444,-3.27144l-17.458,-14.8092c-3.72552,-3.15792 -5.50572,-8.1098 -4.644,-12.91892l4.84008,-27.047c0.22876,-1.28656 0.65876,-2.55076 1.27968,-3.76508c0.00516,-0.01032 4.54596,-10.76892 4.54596,-10.76892l-7.34096,-7.34096c-4.3172,-4.31548 -6.69768,-10.05856 -6.69768,-16.16628c0,-6.106 2.37876,-11.84736 6.6994,-16.16628c4.31548,-4.3172 10.05684,-6.69596 16.16456,-6.69596c6.10772,0 11.85252,2.37876 16.168,6.69768l3.00656,3.00828c1.98316,-1.61164 4.43932,-2.4854 7.02964,-2.4854c1.11112,0 2.19816,0.16168 3.2336,0.473c0.8858,-0.4214 1.83008,-0.72584 2.81392,-0.903l0.63468,-1.85416c1.33472,-3.88376 4.65948,-6.66844 8.59656,-7.3788l0.63468,-1.85416c1.33128,-3.88548 4.65948,-6.6736 8.60172,-7.38052l0.63812,-1.85932c1.32956,-3.88204 4.65604,-6.66844 8.59828,-7.37708l0.6364,-1.85932c1.32956,-3.88032 4.65604,-6.66672 8.6,-7.37708c0.25284,-0.75164 0.64672,-1.88856 1.27108,-3.1734c1.86792,-3.827 5.81016,-6.29176 10.05168,-6.29176c0.82388,0 1.64776,0.09116 2.45272,0.27348c2.7606,-2.08636 5.71728,-3.70144 8.08228,-4.82976c1.49812,-0.7138 3.15964,-1.08876 4.81256,-1.08876c3.57932,0 6.966,1.74924 9.05408,4.62164c2.76232,0.15652 5.49024,0.70692 8.13388,1.63916c4.7042,1.66324 7.70388,6.2436 7.43728,11.14388c2.021,1.87308 3.78056,4.04028 5.21676,6.43624c2.56108,4.2828 1.9522,9.718 -1.37428,13.32312c0.3612,2.71072 0.34228,5.48852 -0.06708,8.24224c-0.688,4.66636 -4.2226,8.32996 -8.7118,9.29144l-0.9374,2.73824c-1.32784,3.88204 -4.65432,6.6736 -8.59828,7.38224l-0.63468,1.85244c-1.32612,3.88204 -4.65432,6.6736 -8.59656,7.38052l-0.63296,1.85072c-1.33128,3.88376 -4.65948,6.67188 -8.60172,7.38052l-0.63812,1.86104c-1.32956,3.88376 -4.65776,6.67188 -8.6,7.3788l-0.63468,1.8576c-0.59684,1.74064 -1.59444,3.26284 -2.86896,4.47544c0.18404,0.81356 0.28036,1.65464 0.28036,2.50948c0,2.98764 -1.16444,5.7964 -3.2766,7.90856l-28.71712,28.71196l-21.77176,22.11748c-2.6058,2.6488 -6.09052,4.10736 -9.80744,4.10736z" fill="#f2f2f2" stroke="none" stroke-width="1" stroke-linecap="butt" stroke-linejoin="miter"></path><path d="M66.57604,128.76436l-17.0108,17.28084l-11.54636,-9.79368l4.11424,-22.98092l3.40732,-4.76956l-7.51296,-7.23776l-4.96736,6.95396c-0.44548,0.62264 -0.74648,1.33644 -0.88064,2.0898l-4.84008,27.04872c-0.32336,1.80944 0.33884,3.655 1.74236,4.84352l17.46316,14.81436c0.9632,0.82216 2.15172,1.22636 3.33336,1.22636c1.33816,0 2.67288,-0.51772 3.67908,-1.54112l20.4508,-20.77588z" fill="#40396e" stroke="none" stroke-width="1" stroke-linecap="butt" stroke-linejoin="miter"></path><path d="M81.7,105.78c-4.8418,0 -9.6836,-1.84728 -13.37816,-5.54184c-7.38912,-7.38912 -7.38912,-19.36892 0,-26.75804l51.6,-51.6c7.39084,-7.38912 19.3672,-7.38912 26.75804,0c7.38912,7.38912 7.38912,19.36892 0,26.75804l-51.6,51.6c-3.69628,3.69456 -8.53808,5.54184 -13.37988,5.54184z" fill="#9aa2e6" stroke="none" stroke-width="1" stroke-linecap="butt" stroke-linejoin="miter"></path><path d="M81.7,94.6c-2.06744,0 -4.01104,-0.80496 -5.47476,-2.26696c-3.01688,-3.01688 -3.01688,-7.92748 0.00172,-10.94608l51.6,-51.6c1.462,-1.462 3.4056,-2.26696 5.47304,-2.26696c2.06744,0 4.01104,0.80496 5.47476,2.26696c3.01688,3.01688 3.01688,7.92748 -0.00172,10.94608l-51.6,51.6c-1.462,1.462 -3.4056,2.26696 -5.47304,2.26696z" fill="#d9eeff" stroke="none" stroke-width="1" stroke-linecap="butt" stroke-linejoin="miter"></path><path d="M66.1512,140.1112l-30.8224,-30.8224l10.04996,-23.80996l17.47004,-17.47004l37.7024,37.7024z" fill="#f9b84f" stroke="none" stroke-width="1" stroke-linecap="butt" stroke-linejoin="miter"></path><path d="M154.47664,32.2156c-2.15172,-3.59136 -5.31136,-6.04752 -8.41596,-7.29968c0.72068,-1.65464 1.3416,-3.55868 1.62712,-5.48336c-3.9474,-1.39492 -7.9378,-1.29516 -11.13528,-0.26832c-0.49192,-1.7544 -1.32096,-3.67564 -2.32544,-5.35264c-3.78056,1.80256 -8.48304,4.79192 -10.02072,7.77096c-1.591,-0.88408 -3.42108,-1.65808 -5.32168,-2.1242c-0.47128,0.96492 -0.71036,1.82836 -1.032,2.72964l-0.9202,2.6832l-1.8404,5.3664l-5.55904,-1.49468l-3.67736,10.73108l-5.55904,-1.49468l-3.67908,10.7328l-5.55904,-1.49468l-3.67736,10.73108l-5.5556,-1.49812l-3.67736,10.73108l-5.55388,-1.49984l-1.83696,5.36468c-0.11524,0.3526 -0.2408,0.71208 -0.36464,1.06984l-5.82392,-5.82736l-19.19004,19.19004l-10.04996,23.80996l30.8224,30.8224l36.12,-36.12l-4.85212,-4.85212l0.64672,-1.88512l1.8404,-5.3664l5.55904,1.49468l3.67736,-10.73108l5.55904,1.49468l3.67908,-10.7328l5.55904,1.49468l3.67736,-10.73108l5.5556,1.49812l3.67736,-10.73108l5.55388,1.49984l1.83696,-5.36468c0.57276,-1.76128 1.34332,-3.64812 1.63228,-5.26492c1.77848,0.41968 3.7496,0.65704 5.70008,0.58136c0.61404,-4.15208 -0.23392,-8.03584 -1.85244,-10.9908c1.62884,-0.81184 3.29896,-1.88512 4.7558,-3.18888z" fill="none" stroke="#40396e" stroke-width="5.16" stroke-linecap="round" stroke-linejoin="round"></path><g fill="#40396e" stroke="none" stroke-width="1" stroke-linecap="butt" stroke-linejoin="miter"><path d="M72.54272,97.21612c-1.32096,0 -2.6402,-0.50396 -3.64812,-1.51188l-27.74188,-27.74016c-1.4878,-1.4878 -4.08844,-1.4878 -5.57624,0c-0.74648,0.74648 -1.15584,1.73548 -1.15584,2.78812c0,1.05264 0.40936,2.04336 1.15584,2.78812l11.86972,11.87144c0,0 -0.71036,0.29584 -2.7262,2.30996c-2.01584,2.01584 -1.90232,7.654 -3.91816,5.63816l-12.5216,-12.5216c-2.69352,-2.6918 -4.1796,-6.27456 -4.1796,-10.08436c0,-3.8098 1.48436,-7.39084 4.1796,-10.08608c2.6918,-2.69352 6.27456,-4.17616 10.08436,-4.17616c3.8098,0 7.39256,1.48264 10.08436,4.17788l27.74188,27.73844c2.01584,2.01412 2.01584,5.28212 0,7.29624c-1.00792,1.00964 -2.32888,1.51188 -3.64812,1.51188z"></path></g></g></g></svg>