<svg width="84" height="84" viewBox="0 0 84 84" fill="none" xmlns="http://www.w3.org/2000/svg">
<g clip-path="url(#clip0)">
<path opacity="0.35" d="M45.497 36.7506C44.279 36.7506 43.0575 36.3271 42.0635 35.4661C39.8725 33.5691 39.638 30.2511 41.535 28.0601L64.285 1.81005C66.1855 -0.380946 69.4965 -0.618949 71.691 1.28155C73.882 3.17855 74.1165 6.49655 72.2195 8.68755L49.4695 34.9376C48.43 36.1381 46.967 36.7506 45.497 36.7506V36.7506Z" fill="#606060"/>
<path opacity="0.35" d="M25.9496 19.5516C23.2161 16.8181 18.7851 16.8181 16.0516 19.5516L5.55159 30.0516C2.81809 32.7851 2.81809 37.2161 5.55159 39.9496C6.92009 41.3181 8.70859 42.0006 10.5006 42.0006C12.2926 42.0006 14.0811 41.3181 15.4496 39.9496L25.9496 29.4496C28.6831 26.7161 28.6831 22.2851 25.9496 19.5516H25.9496Z" fill="#606060"/>
<path d="M47.25 33.25C47.25 33.25 52.5 42 64.75 43.75Z" fill="#606060"/>
<path d="M65.4919 38.5523C60.9349 37.9013 57.6379 36.0708 55.3979 34.3208C56.3849 30.7473 55.6639 26.8098 52.9269 24.0763C48.6324 19.7923 41.6919 20.0303 37.6984 24.4753L28.3184 34.8948L24.4124 30.9888L16.9889 38.4123L21.2869 42.7103L6.61489 59.0098C2.61789 63.4478 2.67739 70.6963 7.24839 74.5393C9.20489 76.1878 11.6059 76.9998 13.9964 76.9998C16.8699 76.9998 19.7329 75.8273 21.8014 73.5243C24.1954 70.8643 28.3289 70.7558 30.8594 73.2863L40.0364 82.4633C41.0619 83.4888 42.4059 83.9998 43.7499 83.9998C45.2269 83.9998 46.7039 83.3803 47.7609 82.1378C49.5739 80.0063 49.1749 76.7478 47.1939 74.7703L41.1074 68.6838C45.1884 63.9098 45.9059 55.5203 43.1584 49.7978L49.3604 42.9063C52.7869 45.4998 57.6134 48.0338 64.0114 48.9473C64.2564 48.9823 64.5119 48.9998 64.7569 48.9998C67.3259 48.9998 69.5729 47.1098 69.9474 44.4918C70.3604 41.6218 68.3619 38.9618 65.4919 38.5523L65.4919 38.5523ZM36.1444 63.7208L33.2394 60.8158L37.7579 55.7968C38.0939 58.5793 37.5269 61.7643 36.1444 63.7208H36.1444Z" fill="#606060"/>
</g>
<defs>
<clipPath id="clip0">
<rect width="84" height="84" fill="white"/>
</clipPath>
</defs>
</svg>
