<svg width="84" height="84" viewBox="0 0 84 84" fill="none" xmlns="http://www.w3.org/2000/svg">
<g clip-path="url(#clip0)">
<path d="M56 24.5C59.866 24.5 63 21.366 63 17.5C63 13.634 59.866 10.5 56 10.5C52.134 10.5 49 13.634 49 17.5C49 21.366 52.134 24.5 56 24.5V24.5Z" fill="#E92E3C"/>
<path opacity="0.35" d="M57.9285 41.5737L58.03 41.6892L50.1445 37.4507L47.019 42.8757L55.3 53.9007C55.7544 54.5065 56 55.2434 56 56.0007V70.0007C56 71.9337 54.433 73.5007 52.5 73.5007C50.567 73.5007 49 71.9337 49 70.0007L47.25 57.7507L39.2245 49.7252L30.4745 58.4752C29.8183 59.1316 28.9282 59.5005 28 59.5007H17.5V66.5007C17.5 72.2997 22.201 77.0007 28 77.0007H59.5C65.299 77.0007 70 72.2997 70 66.5007V42.0007H59.5C58.9495 41.9862 58.4106 41.8397 57.9285 41.5737H57.9285Z" fill="#E92E3C"/>
<path opacity="0.35" d="M59.5 7H28C22.201 7 17.5 11.701 17.5 17.5V38.5C17.5002 37.5718 17.8691 36.6817 18.5255 36.0255L29.0255 25.5255C29.6817 24.8691 30.5718 24.5002 31.5 24.5H45.5C47.0514 24.5073 48.5557 25.0334 49.7735 25.9945C49.9073 26.0562 50.0371 26.1263 50.162 26.2045L60.7635 35H70V17.5C70 11.701 65.299 7 59.5 7L59.5 7ZM56 24.5C52.134 24.5 49 21.366 49 17.5C49 13.634 52.134 10.5 56 10.5C59.866 10.5 63 13.634 63 17.5C63 21.366 59.866 24.5 56 24.5V24.5Z" fill="#E92E3C"/>
<path opacity="0.35" d="M25.9945 51.044L31.6225 43.204C31.3031 41.5857 31.6043 39.9065 32.466 38.5H32.4415L35.9415 32.4625L32.956 31.5L23.4745 40.9745C22.4735 41.9752 20.9684 42.2745 19.6607 41.7329C18.353 41.1913 17.5003 39.9154 17.5 38.5V52.0765L25.9945 51.044Z" fill="#E92E3C"/>
<path d="M70 42V35H60.7635L50.1655 26.2045C50.0406 26.1263 49.9108 26.0562 49.777 25.9945C48.5583 25.0327 47.0526 24.5065 45.5 24.5H31.5C30.5718 24.5002 29.6817 24.8691 29.0255 25.5255L18.5255 36.0255C17.6157 36.9043 17.2508 38.2056 17.5711 39.4293C17.8914 40.653 18.847 41.6086 20.0707 41.9289C21.2944 42.2492 22.5957 41.8843 23.4745 40.9745L32.949 31.5L35.9205 32.4625L32.4415 38.5H32.466C31.6069 39.9036 31.3059 41.5786 31.6225 43.1935L25.9945 51.0335L14.042 52.5H14C12.067 52.5 10.5 54.067 10.5 56C10.5 57.933 12.067 59.5 14 59.5H28C28.9282 59.4998 29.8183 59.1309 30.4745 58.4745L39.2245 49.7245L47.25 57.75L49 70C49 71.933 50.567 73.5 52.5 73.5C54.433 73.5 56 71.933 56 70V56C56 55.2427 55.7544 54.5058 55.3 53.9L47.019 42.861L50.1445 37.436L58.03 41.6885L57.9285 41.573C58.4106 41.839 58.9496 41.9855 59.5 42L70 42Z" fill="#E92E3C"/>
</g>
<defs>
<clipPath id="clip0">
<rect width="84" height="84" fill="white"/>
</clipPath>
</defs>
</svg>
