<svg version="1.1" xmlns="http://www.w3.org/2000/svg" xmlns:xlink="http://www.w3.org/1999/xlink" viewBox="0 0 172 172"><g fill="none" fill-rule="nonzero" stroke="none" stroke-width="1" stroke-linecap="butt" stroke-linejoin="miter" stroke-miterlimit="10" stroke-dasharray="" stroke-dashoffset="0" font-family="none" font-weight="none" font-size="none" text-anchor="none" style="mix-blend-mode: normal"><path d="M0,172v-172h172v172z" fill="none"></path><g><path d="M87.2384,170.28c-6.30208,0 -11.76136,-2.53184 -15.32864,-6.88h-14.28976c-6.16448,0 -11.18,-5.01552 -11.18,-11.18v-10.28904l-11.3434,6.5274c-2.60064,1.30032 -5.51948,1.9866 -8.44176,1.9866c-2.32716,0 -4.60788,-0.41968 -6.7768,-1.25044c-4.98972,-1.9522 -8.91476,-5.88584 -10.83084,-10.8188c-3.46236,-8.99044 0.70004,-19.4446 9.46688,-23.82716l18.33692,-10.02072l8.66536,-20.9324c-1.87136,0.65532 -3.86312,0.9976 -5.89616,0.9976c-4.8934,0 -9.60964,-2.02788 -12.93956,-5.56248c-3.31444,-3.51052 -5.031,-8.1098 -4.82976,-12.94644c0.1978,-4.82976 2.28932,-9.27424 5.891,-12.50612l18.69812,-16.684v-17.114c0,-6.16448 5.01552,-11.18 11.18,-11.18h87.72c6.16448,0 11.18,5.01552 11.18,11.18v132.44c0,6.16448 -5.01552,11.18 -11.18,11.18h-43.01892c-3.5604,4.34644 -8.93712,6.88 -15.08268,6.88z" fill="#000000"></path><path d="M83.6952,166.754c-6.30208,0 -11.76136,-2.53184 -15.32864,-6.88h-14.28976c-6.16448,0 -11.18,-5.01552 -11.18,-11.18v-10.28904l-11.3434,6.5274c-2.60064,1.30032 -5.51948,1.9866 -8.44176,1.9866c-2.32716,0 -4.60788,-0.41968 -6.7768,-1.25044c-4.98972,-1.9522 -8.91476,-5.88584 -10.83084,-10.8188c-3.46236,-8.99044 -1.01996,-19.4446 7.74688,-23.82716l20.05692,-10.02072l8.66536,-20.9324c-1.87136,0.65532 -3.86312,0.9976 -5.89616,0.9976c-4.8934,0 -9.60964,-2.02788 -12.93956,-5.56248c-3.31444,-3.51052 -5.031,-8.1098 -4.82976,-12.94644c0.1978,-4.82976 2.28932,-9.27424 5.891,-12.50612l18.69812,-16.684v-17.114c0,-6.16448 5.01552,-11.18 11.18,-11.18h87.72c6.16448,0 11.18,5.01552 11.18,11.18v132.44c0,6.16448 -5.01552,11.18 -11.18,11.18h-43.01892c-3.5604,4.34816 -8.93712,6.88 -15.08268,6.88z" fill="#f2f2f2"></path><rect x="31.388" y="9.5" transform="scale(1.72,1.72)" width="51.112" height="77" fill="#707cc0"></rect><path d="M85.91572,44.58756l-3.741,6.33304l-24.13848,-10.22196c-1.10768,-0.46612 -2.38048,-0.31992 -3.35228,0.387l-21.45872,15.56944c-2.73824,2.3736 -3.07364,6.5016 -0.75336,9.28456v0c2.41488,2.8982 6.75444,3.20952 9.55976,0.68628l14.76104,-13.95264l11.26772,6.5618l-25.6796,49.83012l-22.6868,12.06236c-3.79948,1.9006 -5.3406,6.52052 -3.44,10.32v0c1.9006,3.79948 6.52052,5.3406 10.32,3.44l30.186,-16.5034c0.28896,-0.17888 0.44032,-0.39904 0.66392,-0.6536l9.60448,-15.87388l18.0256,20.99088l-7.17756,25.03976c-0.76712,5.5814 3.19404,5.4352 5.6674,5.4352h4.51672l9.87452,-32.82792c0.28552,-0.94772 0.14792,-1.97284 -0.37496,-2.8122l-15.94612,-25.55576l8.6,-17.2l12.7452,11.75448c0.9116,0.83936 2.20332,1.12488 3.38324,0.74648l19.66476,-6.30896c2.73652,-0.8772 4.2828,-3.76852 3.49332,-6.53256v0c-0.80152,-2.8036 -3.70832,-4.44104 -6.52052,-3.67392l-14.80404,4.03684l-14.52024,-17.46144l1.72,-3.44c0,0 6.02,4.3 11.18,-2.58c5.16,-6.88 6.88,-20.64 -1.72,-25.8c-8.6,-5.16 -24.08,1.72 -18.92,18.92z" fill="#ffc7a3"></path><path d="M68.51276,45.10012l-7.7314,9.89516l7.27904,4.2398l-13.0204,25.04492l26.57572,7.84664l8.6,-17.2l6.71832,6.19716l7.71764,-10.44384l-10.91168,-13.29904l-11.56528,-6.46032z" fill="#ff7575"></path><path d="M55.04,84.28l-9.7008,18.7652l15.87732,8.41768l5.8136,-9.6062l11.10432,12.93096l11.99012,-9.02312l-8.50884,-13.63788z" fill="#96c362"></path><path d="M141.9,13.76h-87.72c-1.42416,0 -2.58,1.15584 -2.58,2.58v20.96508l-21.543,19.2382c-1.86448,1.66668 -2.9498,3.95772 -3.05472,6.45344c-0.10836,2.49744 0.77916,4.87448 2.494,6.69252c3.41592,3.61888 9.18136,3.8356 12.857,0.48332l9.24672,-7.55596v17.02456l-11.49304,27.7436l-21.18524,11.4208c-4.8504,2.42692 -7.17584,8.14248 -5.29416,13.01352c1.04576,2.70728 3.1906,4.85728 5.88412,5.8996c2.69008,1.04404 5.57108,0.80668 8.3592,-0.41968l23.72912,-10.30796v21.78896c0,1.42416 1.15584,2.58 2.58,2.58h19.20036c1.49124,4.29656 5.31308,6.88 10.41632,6.88c3.89924,0 8.37468,-1.85244 10.19616,-6.88h47.90716c1.42416,0 2.58,-1.15584 2.58,-2.58v-132.44c0,-1.42416 -1.15584,-2.58 -2.58,-2.58zM139.32,146.2h-47.3c-1.24528,0 -2.3134,0.88924 -2.53872,2.11388c-0.76196,4.14692 -3.88892,4.76612 -5.6846,4.76612c-2.34952,0 -5.2718,-0.81184 -5.84628,-4.6784c-0.18576,-1.2642 -1.2728,-2.2016 -2.55076,-2.2016h-18.63964v-27.81584l-31.25412,14.3276c-1.50328,0.65188 -2.79328,0.70864 -4.13316,0.19436c-1.3588,-0.52804 -2.40112,-1.5738 -2.93088,-2.9498c-0.93396,-2.4166 0.29068,-5.28728 2.85864,-6.57384l22.06416,-11.89208c0.52288,-0.28208 0.93224,-0.73616 1.15928,-1.28312l12.04,-29.06456c0.129,-0.31476 0.19608,-0.64844 0.19608,-0.98728l0.03268,-27.48216l-17.91896,13.68604c-1.60992,1.462 -4.13144,1.37256 -5.62612,-0.21156c-0.75164,-0.79636 -1.13864,-1.83696 -1.0922,-2.92916c0.04644,-1.09392 0.52288,-2.0984 1.33644,-2.82596l22.40644,-20.00704c0.54696,-0.4902 0.86172,-1.18852 0.86172,-1.92468v-19.54092h82.56z" fill="#40396e"></path><path d="M87.63916,44.01824c-0.38012,-2.10012 1.05092,-4.11596 3.19748,-4.50468c1.1696,-0.21156 2.82596,0.24424 4.01448,2.01412c4.32064,-8.87176 12.03484,-7.50436 15.80852,-6.41044c-0.5418,-4.59584 -2.80876,-7.79848 -5.73964,-9.55804c-8.49852,-5.0998 -24.60632,1.9092 -19.00428,19.02664l2.13624,0.59856c-0.12384,-0.27348 -0.35604,-0.85484 -0.4128,-1.16616z" fill="#40396e"></path></g></g></svg>