<svg version="1.1" xmlns="http://www.w3.org/2000/svg" xmlns:xlink="http://www.w3.org/1999/xlink" viewBox="0 0 172 172"><g fill="none" fill-rule="nonzero" stroke="none" stroke-width="1" stroke-linecap="butt" stroke-linejoin="miter" stroke-miterlimit="10" stroke-dasharray="" stroke-dashoffset="0" font-family="none" font-weight="none" font-size="none" text-anchor="none" style="mix-blend-mode: normal"><path d="M0,172v-172h172v172z" fill="none"></path><g><path d="M149.63656,68.45944c-0.33196,-13.4246 -4.43932,-26.015 -11.567,-35.45092c-8.53808,-11.30384 -20.92036,-17.52852 -34.86956,-17.52852h-22.36c-11.89208,0 -22.25164,5.45412 -29.1712,15.35616c-4.53392,6.48956 -7.20508,14.33964 -7.90856,23.08584c-5.55216,0.64328 -10.6898,3.45892 -14.36716,7.94468c-5.2202,6.36744 -7.01244,15.28564 -5.0482,25.112c3.6808,18.39368 20.68816,34.3484 34.13512,41.93704v16.25916c0,10.04996 8.17516,18.22512 18.22512,18.22512h37.50976c10.04996,0 18.22512,-8.17516 18.22512,-18.22512v-18.67748c15.71736,-16.54296 17.56464,-43.13588 17.19656,-58.03796z" fill="#000000" opacity="0.35"></path><path d="M146.19656,65.01944c-0.33196,-13.4246 -4.43932,-26.015 -11.567,-35.45092c-8.53808,-11.30384 -20.92036,-17.52852 -34.86956,-17.52852h-22.36c-11.89208,0 -22.25164,5.45412 -29.1712,15.35616c-4.53392,6.48956 -7.20508,14.33964 -7.90856,23.08584c-5.55216,0.64328 -10.6898,3.45892 -14.36716,7.94468c-5.2202,6.36744 -7.01244,15.28564 -5.0482,25.112c3.6808,18.39368 20.68816,34.3484 34.13512,41.93704v16.25916c0,10.04996 8.17516,18.22512 18.22512,18.22512h37.50976c10.04996,0 18.22512,-8.17516 18.22512,-18.22512v-18.67748c15.71736,-16.54296 17.56464,-43.13588 17.19656,-58.03796z" fill="#f2f2f2"></path><path d="M110.77488,146.2h-37.50976c-2.46648,0 -4.46512,-1.99864 -4.46512,-4.46512v-24.77488h46.44v24.77488c0,2.46648 -1.99864,4.46512 -4.46512,4.46512z" fill="#ff7575"></path><path d="M110.77488,146.2h-37.50976c-2.46648,0 -4.46512,-1.99864 -4.46512,-4.46512v-24.77488h46.44v24.77488c0,2.46648 -1.99864,4.46512 -4.46512,4.46512z" fill="#40396e" opacity="0.35"></path><path d="M99.76,25.8h-22.36c-20.64,0 -32.68,24.08 -17.2,55.04c3.04956,8.13216 4.81256,24.7594 8.6,36.12c24.07484,0.47988 39.56,0 46.44,0c13.76,-10.32 17.66784,-32.68 17.2,-51.6c-0.50912,-20.58324 -12.04,-39.56 -32.68,-39.56z" fill="#ff7575"></path><path d="M65.36,70.52c0,0 -8.6,10.32 -13.76,0c-5.85832,-11.71664 -20.64,-6.88 -17.2,10.32c3.52256,17.60936 25.8,34.4 36.12,36.12c13.57252,2.2618 -5.16,-46.44 -5.16,-46.44z" fill="#ff7575"></path><path d="M99.76,25.8c20.64,0 32.17088,18.97676 32.68,39.56c0.46784,18.92 -3.44,41.28 -17.2,51.6v24.77488c0,2.46648 -1.99864,4.46512 -4.46512,4.46512h-37.50976c-2.46648,0 -4.46512,-1.99864 -4.46512,-4.46512v-24.77488c-0.129,-0.17716 -0.24252,-0.33196 -0.37324,-0.50912c-10.96672,-3.33852 -30.7278,-19.11264 -34.02676,-35.61088c-2.16204,-10.81364 2.87584,-16.73904 8.37124,-16.73904c3.24564,0 6.65296,2.06916 8.82876,6.41904c1.1696,2.3392 2.8982,4.62852 4.53908,5.88756c0.18576,0.14276 0.387,0.20468 0.58308,0.20468c0.62952,0 1.19196,-0.6536 0.93052,-1.36568c-9.95364,-27.17944 0.89612,-49.44656 19.74732,-49.44656h22.36M99.76,20.64h-22.36c-9.00076,0 -16.85772,4.14864 -22.12092,11.68224c-5.18064,7.4132 -7.30656,17.3462 -6.29176,28.17704c-1.92812,-1.0148 -4.0334,-1.55832 -6.21436,-1.55832c-3.8872,0 -7.5938,1.79912 -10.16692,4.93984c-3.55524,4.33784 -4.71452,10.71904 -3.26456,17.97228c3.354,16.77688 21.3968,32.79008 34.29852,38.3216v21.56192c0,5.3062 4.3172,9.6234 9.62512,9.6234h37.50976c5.30792,0 9.62512,-4.3172 9.62512,-9.62512v-22.3256c16.32624,-14.34824 17.48896,-42.43068 17.19828,-54.17828c-0.28724,-11.64268 -3.78056,-22.46836 -9.83152,-30.48012c-6.97288,-9.23124 -16.65648,-14.11088 -28.00676,-14.11088z" fill="#40396e"></path></g></g></svg>