<svg width="172" height="172" viewBox="0 0 172 172" fill="none" xmlns="http://www.w3.org/2000/svg">
<path opacity="0.35" d="M150.988 24.4497C140.766 14.2277 127.323 8.59985 113.136 8.59985C99.674 8.59985 87.1042 13.753 77.7491 23.1098L23.7102 77.1487C13.9784 86.8788 8.62061 99.8338 8.62061 113.626C8.62061 127.419 13.9784 140.374 23.7119 150.106L25.3356 151.73C35.0811 161.473 48.0344 166.84 61.8116 166.84C75.5922 166.84 88.5456 161.473 98.2894 151.73L152.328 97.6907C172.153 77.8677 171.551 45.0123 150.988 24.4497V24.4497Z" fill="black"/>
<path d="M147.549 21.0097C137.327 10.7878 123.883 5.15991 109.696 5.15991C96.234 5.15991 83.6643 10.313 74.3092 19.6698L20.2702 73.7088C10.5385 83.4388 5.18066 96.3939 5.18066 110.187C5.18066 123.979 10.5385 136.934 20.2719 146.666L21.8956 148.29C31.6411 158.034 44.5945 163.4 58.3717 163.4C72.1523 163.4 85.1056 158.034 94.8494 148.29L148.888 94.2507C168.713 74.4277 168.111 41.5723 147.549 21.0097V21.0097Z" fill="#F2F2F2"/>
<path d="M31.3796 138.02L29.6803 136.32C14.2381 120.878 13.4693 96.6107 27.962 82.118L78.0879 31.992C92.5807 17.4993 116.848 18.2681 132.29 33.7103L133.99 35.4096C149.432 50.8518 150.201 75.1193 135.708 89.612L85.582 139.738C71.0893 154.231 46.8218 153.462 31.3796 138.02V138.02Z" fill="#F4A3BE"/>
<path d="M54.1799 54.1799L82.1299 26.2299C97.5669 10.7929 123.171 11.3708 139.32 27.5199C155.469 43.669 156.047 69.2729 140.61 84.7099L112.66 112.66" fill="#81C2F6"/>
<path d="M38.8951 124.033C38.2347 124.033 37.5742 123.782 37.0702 123.278L35.5274 121.735C30.5566 116.766 27.8201 110.149 27.8201 103.103C27.8201 96.0558 30.5583 89.439 35.5291 84.4682L86.7438 33.2724C91.3586 28.661 97.6125 26.1206 104.353 26.1206C111.78 26.1206 118.865 29.1117 124.298 34.5417C125.306 35.5496 125.306 37.1836 124.298 38.1916C123.29 39.1995 121.658 39.1978 120.65 38.1916C116.19 33.735 110.404 31.2789 104.353 31.2789C98.9902 31.2789 94.0315 33.2827 90.3919 36.9205L39.1789 88.1197C35.1799 92.1136 32.9801 97.4353 32.9801 103.104C32.9801 108.772 35.1799 114.093 39.1772 118.087L40.7201 119.628C41.728 120.636 41.728 122.27 40.7201 123.278C40.2161 123.782 39.5556 124.033 38.8951 124.033V124.033Z" fill="#F2F2F2"/>
<path d="M109.698 17.1998C119.739 17.1998 129.961 21.1627 137.82 29.0214C153.042 44.2434 153.642 68.3216 139.162 82.8023L136.215 85.7487L112.942 109.02L85.121 136.841C77.7353 144.227 68.0535 147.92 58.3733 147.92C48.6931 147.92 39.0113 144.227 31.6256 136.841L30.0002 135.216C15.2271 120.443 15.2271 96.4918 30.0002 81.7204L81.0928 30.6278C81.0928 30.6278 81.0928 30.6278 81.0945 30.6261L84.0409 27.6798C91.043 20.6742 100.29 17.1998 109.698 17.1998V17.1998ZM109.698 12.0398C98.5319 12.0398 88.1224 16.2985 80.391 24.0299L77.4447 26.9763L26.3503 78.0706C9.58895 94.832 9.58895 122.103 26.3503 138.864L27.9757 140.489C36.0959 148.608 46.8906 153.08 58.3733 153.08C69.856 153.08 80.6508 148.608 88.7691 140.489L116.588 112.67L139.86 89.3985L142.808 86.4504C159.277 69.9814 158.675 42.5818 141.466 25.3732C132.87 16.775 121.587 12.0398 109.698 12.0398V12.0398Z" fill="#40396E"/>
<path d="M86.36 106.72C98.7091 106.72 108.72 96.7091 108.72 84.36C108.72 72.0109 98.7091 62 86.36 62C74.0109 62 64 72.0109 64 84.36C64 96.7091 74.0109 106.72 86.36 106.72Z" fill="#F2F2F2"/>
<path d="M91.52 70.5999H81.2V98.1199H91.52V70.5999Z" fill="#F4665C"/>
<path d="M72.5999 79.2V89.52H100.12V79.2H72.5999Z" fill="#F4665C"/>
</svg>
