<svg width="84" height="84" viewBox="0 0 84 84" fill="none" xmlns="http://www.w3.org/2000/svg">
<g clip-path="url(#clip0)">
<path opacity="0.35" d="M69.8258 48.8252C79.3948 39.2562 79.3948 23.7442 69.8258 14.1787C60.2568 4.6097 44.7448 4.6097 35.1758 14.1787C33.1983 16.1562 28.9388 20.4157 24.6758 24.6787L59.3258 59.3252C63.5853 55.0622 67.8483 50.7992 69.8258 48.8252Z" fill="#05D784"/>
<path d="M14.1756 69.8248C23.7446 79.3938 39.2566 79.3938 48.8256 69.8248C50.8031 67.8473 55.0626 63.5878 59.3256 59.3248L24.6756 24.6748C20.4126 28.9378 16.1531 33.1973 14.1756 35.1748C4.61009 44.7438 4.61009 60.2558 14.1756 69.8248V69.8248Z" fill="#05D784"/>
</g>
<defs>
<clipPath id="clip0">
<rect width="84" height="84" fill="white"/>
</clipPath>
</defs>
</svg>
