<svg version="1.1" xmlns="http://www.w3.org/2000/svg" xmlns:xlink="http://www.w3.org/1999/xlink" viewBox="0 0 172 172"><g fill="none" fill-rule="nonzero" stroke="none" stroke-width="none" stroke-linecap="none" stroke-linejoin="none" stroke-miterlimit="10" stroke-dasharray="" stroke-dashoffset="0" font-family="none" font-weight="none" font-size="none" text-anchor="none" style="mix-blend-mode: normal"><path d="M0,172v-172h172v172z" fill="none" stroke="none" stroke-width="1" stroke-linecap="butt" stroke-linejoin="miter"></path><g><path d="M89.44,172c-31.44848,0 -59.40708,-31.6824 -64.51548,-74.00816c-0.36464,-0.23392 -0.71552,-0.48848 -1.05092,-0.76368c-2.60236,-2.13452 -4.0936,-5.28556 -4.0936,-8.64644v-12.04c0,-3.3626 1.49124,-6.51364 4.09016,-8.64472c0.56072,-0.45924 1.16272,-0.86172 1.79568,-1.20228c5.22192,-28.31808 22.99984,-49.30208 47.2484,-55.89828c0.46268,-1.26936 1.15584,-2.45788 2.06228,-3.50192c2.11388,-2.44584 5.1944,-3.85452 8.44348,-3.85452h12.04c3.24908,0 -2.9842,2.70384 -0.86,5.16c0.90128,1.03888 10.90652,0.9288 11.36576,2.19472c24.24856,6.59448 42.02648,27.5802 47.2484,55.89828c0.63124,0.33884 1.23152,0.7396 1.79052,1.19712c2.60408,2.13624 4.09532,5.28728 4.09532,8.64988v12.04c0,3.3626 -1.49124,4.79364 -4.09016,6.92472c-0.33712,0.27692 -0.68972,0.53148 -1.05436,0.7654c-5.1084,42.32748 -33.067,75.72988 -64.51548,75.72988z" fill="#000000" stroke="none" stroke-width="1" stroke-linecap="butt" stroke-linejoin="miter" opacity="0.35"></path><path d="M86,168.56c-31.44848,0 -59.40708,-31.6824 -64.51548,-74.00816c-0.36464,-0.23392 -0.71552,-0.48848 -1.05092,-0.76368c-2.60236,-2.13452 -4.0936,-5.28556 -4.0936,-8.64816v-12.04c0,-3.3626 1.49124,-6.51364 4.09016,-8.64472c0.56072,-0.45924 1.16272,-0.86172 1.79568,-1.20228c5.22192,-28.31808 22.99984,-49.30208 47.2484,-55.89828c0.46268,-1.26936 1.15584,-2.45788 2.06228,-3.50192c2.11388,-2.44412 5.1944,-3.8528 8.44348,-3.8528h12.04c3.24908,0 6.3296,1.40868 8.4538,3.86484c0.90128,1.03888 1.59272,2.22396 2.05196,3.4916c24.24856,6.59448 42.02648,27.5802 47.2484,55.89828c0.63124,0.33884 1.23152,0.7396 1.79052,1.19712c2.60408,2.13624 4.09532,5.28728 4.09532,8.64988v12.04c0,3.3626 -1.49124,4.79364 -4.09016,6.92472c-0.33712,0.27692 -0.68972,0.53148 -1.05436,0.7654c-5.1084,42.32576 -33.067,75.72816 -64.51548,75.72816z" fill="#f2f2f2" stroke="none" stroke-width="1" stroke-linecap="butt" stroke-linejoin="miter"></path><path d="M140.18,80.84c0,39.4224 -24.25716,76.54 -54.18,76.54c-29.92284,0 -54.18,-37.1176 -54.18,-76.54c0,-39.4224 24.25716,-64.5 54.18,-64.5c29.92284,0 54.18,25.0776 54.18,64.5z" fill="#ffe8d9" stroke="none" stroke-width="1" stroke-linecap="butt" stroke-linejoin="miter"></path><path d="M140.18,80.84c0,39.4224 -24.25716,76.54 -54.18,76.54c-29.92284,0 -54.18,-37.1176 -54.18,-76.54c0,-39.4224 24.25716,-64.5 54.18,-64.5c29.92284,0 54.18,25.0776 54.18,64.5z" fill="none" stroke="#40396e" stroke-width="5.16" stroke-linecap="round" stroke-linejoin="round"></path><path d="M90.3,23.22h-8.6l-1.72,-12.04h12.04z" fill="#40396e" stroke="#40396e" stroke-width="5.16" stroke-linecap="round" stroke-linejoin="round"></path><path d="M36.12,74.82v8.6l-8.6,1.72v-12.04z" fill="#40396e" stroke="#40396e" stroke-width="5.16" stroke-linecap="round" stroke-linejoin="round"></path><path d="M144.48,73.1v12.04l-8.6,-1.72v-8.6z" fill="#40396e" stroke="#40396e" stroke-width="5.16" stroke-linecap="round" stroke-linejoin="round"></path><ellipse cx="75.5" cy="54" transform="scale(1.72,1.72)" rx="1.5" ry="2" fill="#40396e" stroke="none" stroke-width="1" stroke-linecap="butt" stroke-linejoin="miter"></ellipse><ellipse cx="70.5" cy="57" transform="scale(1.72,1.72)" rx="1.5" ry="2" fill="#40396e" stroke="none" stroke-width="1" stroke-linecap="butt" stroke-linejoin="miter"></ellipse><ellipse cx="75.5" cy="35" transform="scale(1.72,1.72)" rx="1.5" ry="2" fill="#40396e" stroke="none" stroke-width="1" stroke-linecap="butt" stroke-linejoin="miter"></ellipse><ellipse cx="71.5" cy="30" transform="scale(1.72,1.72)" rx="1.5" ry="2" fill="#40396e" stroke="none" stroke-width="1" stroke-linecap="butt" stroke-linejoin="miter"></ellipse><ellipse cx="70.5" cy="38" transform="scale(1.72,1.72)" rx="1.5" ry="2" fill="#40396e" stroke="none" stroke-width="1" stroke-linecap="butt" stroke-linejoin="miter"></ellipse><ellipse cx="24.5" cy="35" transform="scale(1.72,1.72)" rx="1.5" ry="2" fill="#40396e" stroke="none" stroke-width="1" stroke-linecap="butt" stroke-linejoin="miter"></ellipse><ellipse cx="28.5" cy="30" transform="scale(1.72,1.72)" rx="1.5" ry="2" fill="#40396e" stroke="none" stroke-width="1" stroke-linecap="butt" stroke-linejoin="miter"></ellipse><ellipse cx="29.5" cy="38" transform="scale(1.72,1.72)" rx="1.5" ry="2" fill="#40396e" stroke="none" stroke-width="1" stroke-linecap="butt" stroke-linejoin="miter"></ellipse><ellipse cx="24.5" cy="54" transform="scale(1.72,1.72)" rx="1.5" ry="2" fill="#40396e" stroke="none" stroke-width="1" stroke-linecap="butt" stroke-linejoin="miter"></ellipse><ellipse cx="29.5" cy="57" transform="scale(1.72,1.72)" rx="1.5" ry="2" fill="#40396e" stroke="none" stroke-width="1" stroke-linecap="butt" stroke-linejoin="miter"></ellipse><circle cx="45" cy="69" transform="scale(1.72,1.72)" r="2" fill="#40396e" stroke="none" stroke-width="1" stroke-linecap="butt" stroke-linejoin="miter"></circle><ellipse cx="61.5" cy="71" transform="scale(1.72,1.72)" rx="1.5" ry="2" fill="#40396e" stroke="none" stroke-width="1" stroke-linecap="butt" stroke-linejoin="miter"></ellipse><ellipse cx="66.5" cy="74" transform="scale(1.72,1.72)" rx="1.5" ry="2" fill="#40396e" stroke="none" stroke-width="1" stroke-linecap="butt" stroke-linejoin="miter"></ellipse><ellipse cx="38.5" cy="71" transform="scale(1.72,1.72)" rx="1.5" ry="2" fill="#40396e" stroke="none" stroke-width="1" stroke-linecap="butt" stroke-linejoin="miter"></ellipse><ellipse cx="33.5" cy="74" transform="scale(1.72,1.72)" rx="1.5" ry="2" fill="#40396e" stroke="none" stroke-width="1" stroke-linecap="butt" stroke-linejoin="miter"></ellipse><circle cx="45" cy="76" transform="scale(1.72,1.72)" r="2" fill="#40396e" stroke="none" stroke-width="1" stroke-linecap="butt" stroke-linejoin="miter"></circle><circle cx="45" cy="83" transform="scale(1.72,1.72)" r="2" fill="#40396e" stroke="none" stroke-width="1" stroke-linecap="butt" stroke-linejoin="miter"></circle><circle cx="55" cy="69" transform="scale(1.72,1.72)" r="2" fill="#40396e" stroke="none" stroke-width="1" stroke-linecap="butt" stroke-linejoin="miter"></circle><circle cx="55" cy="76" transform="scale(1.72,1.72)" r="2" fill="#40396e" stroke="none" stroke-width="1" stroke-linecap="butt" stroke-linejoin="miter"></circle><circle cx="55" cy="83" transform="scale(1.72,1.72)" r="2" fill="#40396e" stroke="none" stroke-width="1" stroke-linecap="butt" stroke-linejoin="miter"></circle><g fill="#40396e" stroke="none" stroke-width="1" stroke-linecap="butt" stroke-linejoin="miter"><circle cx="37" cy="33" transform="scale(1.72,1.72)" r="2"></circle><circle cx="45" cy="33" transform="scale(1.72,1.72)" r="2"></circle><circle cx="55" cy="33" transform="scale(1.72,1.72)" r="2"></circle><circle cx="37" cy="26" transform="scale(1.72,1.72)" r="2"></circle><circle cx="37" cy="19" transform="scale(1.72,1.72)" r="2"></circle><circle cx="63" cy="33" transform="scale(1.72,1.72)" r="2"></circle><circle cx="63" cy="26" transform="scale(1.72,1.72)" r="2"></circle><circle cx="63" cy="19" transform="scale(1.72,1.72)" r="2"></circle></g><g fill="#40396e" stroke="none" stroke-width="1" stroke-linecap="butt" stroke-linejoin="miter"><path d="M66.22,72.25892c3.63608,0.301 10.32,3.44 10.32,10.32c0,8.6 -8.6,10.32 -12.04,10.32c-5.16,0 -10.32,-3.1218 -10.32,-11.03552c0,-8.59828 8.35404,-9.90892 12.04,-9.60448z"></path><path d="M105.78,72.25892c-3.63608,0.301 -10.32,3.44 -10.32,10.32c0,8.6 8.6,10.32 12.04,10.32c5.16,0 10.32,-3.1218 10.32,-11.03552c0,-8.59828 -8.35404,-9.90892 -12.04,-9.60448z"></path></g><path d="M66.27848,65.36l20.55572,10.59004l18.88732,-10.59004z" fill="#f4665c" stroke="none" stroke-width="1" stroke-linecap="butt" stroke-linejoin="miter"></path><path d="M63.49896,96.49028l-8.65504,21.0012l-5.53496,-5.21848c0,0 4.98284,-9.73864 14.19,-15.78272z" fill="#f4665c" stroke="none" stroke-width="1" stroke-linecap="butt" stroke-linejoin="miter"></path><path d="M104.49,96.49028l8.65504,21.0012l5.53496,-5.21848c0,0 -4.98284,-9.73864 -14.19,-15.78272z" fill="#f4665c" stroke="none" stroke-width="1" stroke-linecap="butt" stroke-linejoin="miter"></path><path d="M76.54,106.99088h18.92c0,0 -2.58,-7.23088 -9.46,-7.23088c-6.88,0 -9.46,7.23088 -9.46,7.23088z" fill="#40396e" stroke="none" stroke-width="1" stroke-linecap="butt" stroke-linejoin="miter"></path></g></g></svg>