<svg width="84" height="84" viewBox="0 0 84 84" fill="none" xmlns="http://www.w3.org/2000/svg">
<path d="M22.75 40.25C22.75 40.25 20.8495 36.75 15.9687 36.75C12.25 36.75 12.25 40.5125 12.25 42.3955C12.25 44.2767 14.1102 49.5442 14.1102 51.8035C14.1102 53.6847 14.9397 57.449 17.829 57.449C22.1777 57.449 22.75 54.25 22.75 54.25L22.75 40.25ZM61.25 54.25C61.25 54.25 61.8223 57.75 66.1728 57.75C69.062 57.75 69.8915 53.9315 69.8915 52.0223C69.8915 49.7297 71.7518 44.3852 71.7518 42.476C71.75 40.5685 71.75 36.75 68.0313 36.75C63.1505 36.75 61.25 40.25 61.25 40.25L61.25 54.25Z" fill="#FC8F00"/>
<path d="M21.0001 47.3463V44.4098C15.8884 37.856 14.1454 41.034 14.1454 41.034C13.1076 42.2048 17.9481 54.25 17.9481 54.25L15.7939 44.2505C15.7939 44.2505 18.9404 46.4345 21.0001 47.3463ZM69.8549 41.034C69.8549 41.034 68.1119 37.856 63.0001 44.4098V47.3463C65.0598 46.4345 68.2064 44.2505 68.2064 44.2505L66.0521 54.25C66.0521 54.25 70.8926 42.2048 69.8549 41.034V41.034Z" fill="#EF6C00"/>
<path d="M42 17.5C26.25 17.5 19.25 25.5885 19.25 33.362C19.25 38.1675 20.7655 61.9203 21.749 66.8955C22.4735 70.5565 27.8215 73.696 31.0957 76.888C32.3207 78.0833 33.978 78.75 35.7175 78.75H42H48.2825C50.022 78.75 51.6793 78.0833 52.9043 76.8863C56.1768 73.6943 61.5265 70.5548 62.251 66.8938C63.2363 61.9185 64.75 36.96 64.75 33.362C64.75 25.5885 57.75 17.5 42 17.5V17.5Z" fill="#FFAA45"/>
<path d="M32.3767 40.252C30.9279 40.252 29.7534 41.4264 29.7534 42.8752C29.7534 44.324 30.9279 45.4985 32.3767 45.4985C33.8255 45.4985 34.9999 44.324 34.9999 42.8752C34.9999 41.4264 33.8255 40.252 32.3767 40.252ZM51.6232 40.252C50.1744 40.252 48.9999 41.4264 48.9999 42.8752C48.9999 44.324 50.1744 45.4985 51.6232 45.4985C53.0719 45.4985 54.2464 44.324 54.2464 42.8752C54.2464 41.4264 53.0719 40.252 51.6232 40.252Z" fill="#4E342E"/>
<path d="M35 56C35 56.875 35.784 57.75 36.75 57.75H47.25C48.216 57.75 49 56.875 49 56C49 55.2125 48.125 54.2535 46.375 54.2535C45.0345 54.2535 43.9687 56 42 56.0018C40.0312 56.0035 38.9375 54.2535 37.625 54.25C35.875 54.2465 35 55.2125 35 56V56Z" fill="#FC8F00"/>
<path d="M59.3793 10.5H24.6208C20.125 14.875 19.25 19.25 19.25 28V33.25C19.25 33.25 24.8938 22.8742 42 22.75C59.1062 22.8742 64.75 33.25 64.75 33.25V28C64.75 19.25 63.875 14.875 59.3792 10.5H59.3793Z" fill="#3949AB"/>
<path d="M34.5345 23.562C34.9895 23.4535 35.4673 23.3573 35.9625 23.268C36.05 23.2523 36.1375 23.2383 36.2268 23.2225C37.919 22.9355 39.8143 22.75 42 22.75C44.1858 22.75 46.081 22.9355 47.7733 23.2225C47.8625 23.2365 47.95 23.2523 48.0375 23.268C48.5328 23.3573 49.0105 23.4553 49.4655 23.562C53.76 24.4913 56.9993 26.096 59.3583 27.7533C59.7065 22.5522 61.25 18.669 61.25 14C61.25 12.25 59.8973 10.8325 58.5935 9.849C52.5 5.25 43.9233 3.5 42 3.5C40.0768 3.5 31.5 5.25 25.4065 9.849C24.1028 10.8325 22.75 12.25 22.75 14C22.75 18.669 24.2935 22.5522 24.6417 27.7533C27.0007 26.096 30.24 24.4913 34.5345 23.562H34.5345Z" fill="#E0E0E0"/>
<path d="M49.4656 23.562C49.0106 23.4535 48.5328 23.3573 48.0376 23.268C47.9501 23.2523 47.8626 23.2383 47.7733 23.2225C46.0811 22.9355 44.1859 22.75 42.0001 22.75C39.8143 22.75 37.9191 22.9355 36.2268 23.2225C36.1376 23.2365 36.0501 23.2523 35.9626 23.268C35.4673 23.3573 34.9896 23.4553 34.5346 23.562C33.5931 23.765 32.7233 24.0135 31.8798 24.276L29.9023 31.5368C29.9023 31.5368 33.2501 27.9125 42.0001 28C50.7501 28.0875 54.0978 31.5368 54.0978 31.5368L52.1186 24.276C51.2768 24.0135 50.4071 23.765 49.4656 23.562H49.4656Z" fill="#FF9800"/>
<path d="M37.079 32.9125L24.5 30.501V34.064L38.5 36.7485V34.631C38.5 33.7927 37.9033 33.0717 37.079 32.9125V32.9125ZM59.5 30.501L46.921 32.9142C46.0968 33.0717 45.5 33.7927 45.5 34.631V36.7485L59.5 34.064V30.501Z" fill="#C16E14"/>
<path d="M42 21C23.989 21 19.25 33.25 19.25 33.25C19.25 33.25 21.875 40.25 23.625 40.25C25.5202 40.25 30.625 24.5 42 24.5C53.375 24.5 58.4798 40.25 60.375 40.25C62.125 40.25 64.75 33.25 64.75 33.25C64.75 33.25 60.011 21 42 21Z" fill="#B71C1C"/>
<path d="M45.5 64.75C44.1717 64.75 39.8283 64.75 38.5 64.75C35 64.75 33.25 66.5 33.25 66.5C33.25 66.5 35 68.25 38.5 68.25C39.8283 68.25 44.1717 68.25 45.5 68.25C49 68.25 50.75 66.5 50.75 66.5C50.75 66.5 49 64.75 45.5 64.75Z" fill="#FC8F00"/>
</svg>
