<svg version="1.1" xmlns="http://www.w3.org/2000/svg" xmlns:xlink="http://www.w3.org/1999/xlink" viewBox="0 0 172 172"><g fill="none" fill-rule="nonzero" stroke="none" stroke-width="none" stroke-linecap="none" stroke-linejoin="none" stroke-miterlimit="10" stroke-dasharray="" stroke-dashoffset="0" font-family="none" font-weight="none" font-size="none" text-anchor="none" style="mix-blend-mode: normal"><path d="M0,172v-172h172v172z" fill="none" stroke="none" stroke-width="1" stroke-linecap="butt" stroke-linejoin="miter"></path><g><path d="M107.96956,164.26c-7.69184,0 -14.22096,-3.74788 -18.52956,-9.95708c-4.31032,6.20748 -10.83944,9.95708 -18.52956,9.95708c-12.57492,0 -21.8182,-8.27148 -22.42536,-19.84192c-0.57276,0.04988 -1.15584,0.07568 -1.74408,0.07568c-7.7486,0 -12.33412,-3.47956 -14.81608,-6.3984c-5.55044,-6.52568 -4.53564,-14.8522 -4.2742,-16.45524c0.02064,-0.129 0.043,-0.25456 0.0688,-0.38184c-11.48788,-1.40696 -19.54952,-11.14216 -19.54952,-24.17976c0,-13.73936 10.6468,-24.67512 24.682,-25.89116c-3.06504,-2.3392 -5.24944,-6.32272 -5.24944,-11.86112c0,-4.95876 1.74924,-10.12908 4.79708,-14.18312c4.19508,-5.58312 10.43352,-8.65848 17.56464,-8.65848c1.90576,0 3.81496,0.2322 5.66052,0.70692c3.64468,-17.52164 20.1584,-27.44088 30.3924,-30.73124c1.11456,-0.35776 2.26352,-0.53664 3.4228,-0.53664c1.15928,0 2.2704,0.3354 3.41248,0.5332c22.38752,3.86312 32.70752,26.22312 32.70752,29.66312c7.13112,0 16.72528,3.44172 20.92208,9.02656c3.04612,4.05232 4.79536,9.22264 4.79536,14.1814c0,5.5384 -2.1844,9.5202 -5.24944,11.86112c14.0352,1.21604 24.682,12.15008 24.682,25.89116c0,13.0376 -8.06164,22.7728 -19.5478,24.18148c0.0258,0.12384 0.04644,0.2494 0.06708,0.37496c0.26144,1.60992 1.27624,9.93644 -4.27076,16.46212c-2.48368,2.91884 -7.0692,6.3984 -14.8178,6.3984c-0.58824,0 -1.17132,-0.0258 -1.74408,-0.07568c-0.60888,11.567 -9.85216,19.83848 -22.42708,19.83848z" fill="#000000" stroke="none" stroke-width="1" stroke-linecap="butt" stroke-linejoin="miter" opacity="0.35"></path><path d="M104.52956,160.82c-7.69184,0 -14.22096,-3.74788 -18.52956,-9.95708c-4.31032,6.20748 -10.83944,9.95708 -18.52956,9.95708c-12.57492,0 -21.8182,-8.27148 -22.42536,-19.84192c-0.57276,0.04988 -1.15584,0.07568 -1.74408,0.07568c-7.7486,0 -12.33412,-3.47956 -14.81608,-6.3984c-5.55044,-6.52568 -4.53564,-14.8522 -4.2742,-16.45524c0.02064,-0.129 0.043,-0.25456 0.0688,-0.38184c-11.48788,-1.40696 -19.54952,-11.14216 -19.54952,-24.17976c0,-13.73936 10.6468,-24.67512 24.682,-25.89116c-3.06504,-2.3392 -5.24944,-6.32272 -5.24944,-11.86112c0,-4.95876 1.74924,-10.12908 4.79708,-14.18312c4.19508,-5.58312 10.43352,-8.65848 17.56464,-8.65848c1.90576,0 3.81496,0.2322 5.66052,0.70692c3.64468,-17.52164 20.1584,-27.44088 30.3924,-30.73124c1.11456,-0.35776 2.26352,-0.53664 3.4228,-0.53664c1.15928,0 2.30824,0.17888 3.41248,0.5332c10.24432,3.29552 26.75804,13.21304 30.40272,30.7364c1.84556,-0.47472 3.75476,-0.70692 5.66052,-0.70692c7.13112,0 13.36784,3.07536 17.56636,8.6602c3.04612,4.05232 4.79536,9.22264 4.79536,14.1814c0,5.5384 -2.1844,9.5202 -5.24944,11.86112c14.0352,1.21604 24.682,12.15008 24.682,25.89116c0,13.0376 -8.06164,22.7728 -19.5478,24.18148c0.0258,0.12384 0.04644,0.2494 0.06708,0.37496c0.26144,1.60992 1.27624,9.93644 -4.27076,16.46212c-2.48368,2.91884 -7.0692,6.3984 -14.8178,6.3984c-0.58824,0 -1.17132,-0.0258 -1.74408,-0.07568c-0.60888,11.567 -9.85216,19.83848 -22.42708,19.83848z" fill="#f2f2f2" stroke="none" stroke-width="1" stroke-linecap="butt" stroke-linejoin="miter"></path><path d="M86,96.93404c7.25152,0 12.08472,4.94156 12.08472,13.17692c0,8.23536 -6.44484,9.88312 -6.44484,21.41228c0,9.88312 4.8332,18.11848 12.88968,18.11848c6.44484,0 11.27804,-3.7754 11.27804,-9.88312c0,-6.10772 -3.22328,-6.5876 -3.22328,-6.5876c0,8.23536 -11.27804,9.88312 -11.27804,-1.64776c0,-11.53088 9.66812,-16.47072 9.66812,-29.64764c0,-1.22292 -0.10664,-2.29104 -0.26832,-3.268c0.15824,-0.01376 0.26832,-0.0258 0.26832,-0.0258c11.27804,0 8.05648,13.17692 8.05648,18.11848c0,6.5876 3.22328,13.17692 9.66812,13.17692c9.66812,0 8.05648,-9.88312 8.05648,-9.88312c-1.61164,4.94156 -10.47308,3.2938 -9.66812,-3.2938c0.80496,-6.5876 3.22328,-9.88312 3.22328,-16.47072c0,-2.37704 -0.49708,-3.89924 -1.18164,-5.30104c4.19852,-3.16996 7.68668,-6.22812 10.84804,-6.22812c9.66812,0 8.05648,13.17692 3.22328,13.17692c-3.22328,0 -4.8332,-3.2938 -4.8332,-3.2938c0,0 -1.61164,8.23536 6.44484,8.23536c6.44484,0 11.27804,-4.94156 11.27804,-13.17692c0,-8.23536 -6.44484,-14.82296 -16.11296,-14.82296c-4.429,0 -7.396,0.9718 -10.9822,2.29448c0,0 1.3158,-3.56212 1.3158,-7.23604c0,-8.28696 -6.11288,-11.52916 -6.11288,-16.47072c0,-3.2938 2.236,-4.94156 4.50124,-4.94156c4.8332,0 6.44484,6.5876 6.44484,6.5876c3.22328,0 1.87308,-14.82296 -9.66812,-14.82296c-9.40496,0 -9.51332,8.23536 -9.51332,10.75344c0,7.36504 4.64572,12.30488 4.64572,18.8942c0,4.50468 -3.18716,9.88312 -9.632,9.88312c-11.27804,0 -9.66812,-14.82296 -9.66812,-14.82296c0,-9.88312 8.05648,-14.82296 8.05648,-27.99988c-0.00172,-19.76968 -23.36448,-27.27404 -23.36448,-27.27404c0,0 -23.36276,7.50436 -23.36276,27.26888c0,13.17692 8.05648,18.11848 8.05648,27.99988c0,0 1.61164,14.82296 -9.66812,14.82296c-6.44484,0 -9.632,-5.37844 -9.632,-9.88312c0,-6.5876 4.64572,-11.52916 4.64572,-18.8942c0,-2.51808 -0.10836,-10.75344 -9.51332,-10.75344c-11.5412,0 -12.88968,14.82296 -9.66812,14.82296c0,0 1.61164,-6.5876 6.44484,-6.5876c2.26524,0 4.50124,1.64776 4.50124,4.94156c0,4.94156 -6.11288,8.18376 -6.11288,16.47072c0,3.67392 1.3158,7.23604 1.3158,7.23604c-3.58792,-1.32268 -6.55492,-2.29448 -10.9822,-2.29448c-9.66812,0 -16.11296,6.5876 -16.11296,14.82296c0,8.23536 4.8332,13.17692 11.27804,13.17692c8.05648,0 6.44484,-8.23536 6.44484,-8.23536c0,0 -1.61164,3.2938 -4.8332,3.2938c-4.8332,0 -6.44484,-13.17692 3.22328,-13.17692c3.16136,0 6.64952,3.05988 10.84804,6.22812c-0.68284,1.40352 -1.18164,2.924 -1.18164,5.30104c0,6.5876 2.4166,9.88312 3.22328,16.47072c0.80496,6.5876 -8.05648,8.23536 -9.66812,3.2938c0,0 -1.61164,9.88312 8.05648,9.88312c6.44484,0 9.66812,-6.5876 9.66812,-13.17692c0,-4.94156 -3.22328,-18.11848 8.05648,-18.11848c0,0 0.11008,0.01204 0.26832,0.0258c-0.16168,0.97696 -0.26832,2.04508 -0.26832,3.268c0,13.17692 9.66812,18.11848 9.66812,29.64764c0,11.52916 -11.27804,9.88312 -11.27804,1.64776c0,0 -3.22328,0.4816 -3.22328,6.5876c0,6.10772 4.8332,9.88312 11.27804,9.88312c8.05648,0 12.88968,-8.23536 12.88968,-18.11848c0,-11.52916 -6.44484,-13.17692 -6.44484,-21.41228c0,-8.23536 4.83148,-13.17176 12.083,-13.17176z" fill="#9aa2e6" stroke="none" stroke-width="1" stroke-linecap="butt" stroke-linejoin="miter"></path><path d="M43.38356,92.27972c0,0 7.87588,4.77472 18.0686,3.86828l-9.59588,9.06784l0.65704,15.69328l-7.39256,9.6234l-8.9612,-3.44172l-0.97868,-6.48268l6.79056,2.5972l3.096,-4.33096l-0.7052,-8.71696l-2.87928,-11.43628z" fill="#40396e" stroke="none" stroke-width="1" stroke-linecap="butt" stroke-linejoin="miter" opacity="0.35"></path><path d="M36.11828,51.74104l8.24224,-8.20784l6.62544,0.38872l4.50812,7.81912l-1.68732,12.74348l-1.78708,14.97088l9.14352,6.74584c0,0 -7.51468,0.2494 -18.70844,-2.66428l0.78432,-2.63332l-1.39492,-7.33924l1.3244,-8.36952c0,0 2.3822,-5.49712 2.4854,-5.43348c0.10148,0.06192 2.97388,-4.91404 2.97388,-4.91404l-2.95324,-4.07984l-6.51708,3.45548c0,0 -1.3846,5.60032 -1.46716,5.74652c-0.08256,0.1462 -2.99452,-1.66496 -2.99452,-1.66496l0.08084,-5.89272z" fill="#40396e" stroke="none" stroke-width="1" stroke-linecap="butt" stroke-linejoin="miter" opacity="0.35"></path><path d="M86,96.93404c7.25152,0 12.08472,4.94156 12.08472,13.17692c0,8.23536 -6.44484,9.88312 -6.44484,21.41228c0,9.88312 4.8332,18.11848 12.88968,18.11848c6.44484,0 11.27804,-3.7754 11.27804,-9.88312c0,-6.10772 -3.22328,-6.5876 -3.22328,-6.5876c0,8.23536 -11.27804,9.88312 -11.27804,-1.64776c0,-11.53088 9.66812,-16.47072 9.66812,-29.64764c0,-1.22292 -0.10664,-2.29104 -0.26832,-3.268c0.15824,-0.01376 0.26832,-0.0258 0.26832,-0.0258c11.27804,0 8.05648,13.17692 8.05648,18.11848c0,6.5876 3.22328,13.17692 9.66812,13.17692c9.66812,0 8.05648,-9.88312 8.05648,-9.88312c-1.61164,4.94156 -10.47308,3.2938 -9.66812,-3.2938c0.80496,-6.5876 3.22328,-9.88312 3.22328,-16.47072c0,-2.37704 -0.49708,-3.89924 -1.18164,-5.30104c4.19852,-3.16996 7.68668,-6.22812 10.84804,-6.22812c9.66812,0 8.05648,13.17692 3.22328,13.17692c-3.22328,0 -4.8332,-3.2938 -4.8332,-3.2938c0,0 -1.61164,8.23536 6.44484,8.23536c6.44484,0 11.27804,-4.94156 11.27804,-13.17692c0,-8.23536 -6.44484,-14.82296 -16.11296,-14.82296c-4.429,0 -7.396,0.9718 -10.9822,2.29448c0,0 1.3158,-3.56212 1.3158,-7.23604c0,-8.28696 -6.11288,-11.52916 -6.11288,-16.47072c0,-3.2938 2.236,-4.94156 4.50124,-4.94156c4.8332,0 6.44484,6.5876 6.44484,6.5876c3.22328,0 1.87308,-14.82296 -9.66812,-14.82296c-9.40496,0 -9.51332,8.23536 -9.51332,10.75344c0,7.36504 4.64572,12.30488 4.64572,18.8942c0,4.50468 -3.18716,9.88312 -9.632,9.88312c-11.27804,0 -9.66812,-14.82296 -9.66812,-14.82296c0,-9.88312 8.05648,-14.82296 8.05648,-27.99988c-0.00172,-19.76968 -23.36448,-27.27404 -23.36448,-27.27404c0,0 -23.36276,7.50436 -23.36276,27.26888c0,13.17692 8.05648,18.11848 8.05648,27.99988c0,0 1.61164,14.82296 -9.66812,14.82296c-6.44484,0 -9.632,-5.37844 -9.632,-9.88312c0,-6.5876 4.64572,-11.52916 4.64572,-18.8942c0,-2.51808 -0.10836,-10.75344 -9.51332,-10.75344c-11.5412,0 -12.88968,14.82296 -9.66812,14.82296c0,0 1.61164,-6.5876 6.44484,-6.5876c2.26524,0 4.50124,1.64776 4.50124,4.94156c0,4.94156 -6.11288,8.18376 -6.11288,16.47072c0,3.67392 1.3158,7.23604 1.3158,7.23604c-3.58792,-1.32268 -6.55492,-2.29448 -10.9822,-2.29448c-9.66812,0 -16.11296,6.5876 -16.11296,14.82296c0,8.23536 4.8332,13.17692 11.27804,13.17692c8.05648,0 6.44484,-8.23536 6.44484,-8.23536c0,0 -1.61164,3.2938 -4.8332,3.2938c-4.8332,0 -6.44484,-13.17692 3.22328,-13.17692c3.16136,0 6.64952,3.05988 10.84804,6.22812c-0.68284,1.40352 -1.18164,2.924 -1.18164,5.30104c0,6.5876 2.4166,9.88312 3.22328,16.47072c0.80496,6.5876 -8.05648,8.23536 -9.66812,3.2938c0,0 -1.61164,9.88312 8.05648,9.88312c6.44484,0 9.66812,-6.5876 9.66812,-13.17692c0,-4.94156 -3.22328,-18.11848 8.05648,-18.11848c0,0 0.11008,0.01204 0.26832,0.0258c-0.16168,0.97696 -0.26832,2.04508 -0.26832,3.268c0,13.17692 9.66812,18.11848 9.66812,29.64764c0,11.52916 -11.27804,9.88312 -11.27804,1.64776c0,0 -3.22328,0.4816 -3.22328,6.5876c0,6.10772 4.8332,9.88312 11.27804,9.88312c8.05648,0 12.88968,-8.23536 12.88968,-18.11848c0,-11.52916 -6.44484,-13.17692 -6.44484,-21.41228c0,-8.23536 4.83148,-13.17176 12.083,-13.17176z" fill="none" stroke="#40396e" stroke-width="5.16" stroke-linecap="round" stroke-linejoin="round"></path><path d="M128.61644,92.27972c0,0 -7.87588,4.77472 -18.0686,3.86828l9.59588,9.06784l-0.65704,15.69328l7.39256,9.6234l8.9612,-3.44172l0.97868,-6.48268l-6.79056,2.5972l-3.096,-4.33096l0.7052,-8.71696l2.87928,-11.43628z" fill="#40396e" stroke="none" stroke-width="1" stroke-linecap="butt" stroke-linejoin="miter" opacity="0.35"></path><path d="M134.52464,51.74104l-8.24224,-8.20784l-6.62544,0.38872l-4.50812,7.81912l1.68732,12.74348l1.78708,14.97088l-9.14352,6.74584c0,0 7.51468,0.2494 18.70844,-2.66428l-0.78432,-2.63332l1.39492,-7.33924l-1.3244,-8.36952c0,0 -2.3822,-5.49712 -2.4854,-5.43348c-0.10148,0.06192 -2.97388,-4.91404 -2.97388,-4.91404l2.95324,-4.07984l6.51708,3.45548c0,0 1.3846,5.60032 1.46716,5.74652c0.08256,0.1462 2.99452,-1.66496 2.99452,-1.66496l-0.08084,-5.89272z" fill="#40396e" stroke="none" stroke-width="1" stroke-linecap="butt" stroke-linejoin="miter" opacity="0.35"></path><path d="M61.25092,101.34068c-0.13244,0 -0.2666,-0.01204 -0.40076,-0.03612c-1.30376,-0.22532 -2.19128,-1.46716 -1.9866,-2.8036c0.04472,-0.29068 6.063,-10.22024 12.15696,-8.56044c-6.9574,4.21056 -7.35644,9.18136 -7.3874,9.35508c-0.21328,1.1954 -1.23324,2.04508 -2.3822,2.04508z" fill="#40396e" stroke="none" stroke-width="1" stroke-linecap="butt" stroke-linejoin="miter" opacity="0.35"></path><path d="M110.76284,101.34068c0.13244,0 0.2666,-0.01204 0.40076,-0.03612c1.30376,-0.22532 2.19128,-1.46716 1.9866,-2.8036c-0.04472,-0.29068 -6.063,-10.22024 -12.15696,-8.56044c6.9574,4.21056 7.35644,9.18136 7.3874,9.35508c0.21328,1.1954 1.23496,2.04508 2.3822,2.04508z" fill="#40396e" stroke="none" stroke-width="1" stroke-linecap="butt" stroke-linejoin="miter" opacity="0.35"></path><ellipse cx="42.317" cy="39.405" transform="scale(1.72,1.72)" rx="4.495" ry="4.595" fill="#40396e" stroke="none" stroke-width="1" stroke-linecap="butt" stroke-linejoin="miter"></ellipse><path d="M69.6686,65.53888c0,0 4.48232,0.17028 6.0114,4.87964c0,-0.00172 -6.48612,0.2322 -6.0114,-4.87964z" fill="#ffffff" stroke="none" stroke-width="1" stroke-linecap="butt" stroke-linejoin="miter"></path><ellipse cx="58.317" cy="39.405" transform="scale(1.72,1.72)" rx="4.495" ry="4.595" fill="#40396e" stroke="none" stroke-width="1" stroke-linecap="butt" stroke-linejoin="miter"></ellipse><path d="M103.42016,65.53888c0,0 -4.48232,0.17028 -6.0114,4.87964c0,-0.00172 6.48612,0.2322 6.0114,-4.87964z" fill="#ffffff" stroke="none" stroke-width="1" stroke-linecap="butt" stroke-linejoin="miter"></path><circle cx="45" cy="23" transform="scale(1.72,1.72)" r="3" fill="#40396e" stroke="none" stroke-width="1" stroke-linecap="butt" stroke-linejoin="miter" opacity="0.35"></circle><circle cx="50.5" cy="16.5" transform="scale(1.72,1.72)" r="1.5" fill="#40396e" stroke="none" stroke-width="1" stroke-linecap="butt" stroke-linejoin="miter" opacity="0.35"></circle><circle cx="54" cy="22" transform="scale(1.72,1.72)" r="2" fill="#40396e" stroke="none" stroke-width="1" stroke-linecap="butt" stroke-linejoin="miter" opacity="0.35"></circle></g></g></svg>