<svg width="84" height="84" viewBox="0 0 84 84" fill="none" xmlns="http://www.w3.org/2000/svg">
<path d="M56.98 29.7743C60.6113 29.7743 62.2073 27.6008 61.866 26.9323C61.5318 26.269 60.3645 27.025 57.7413 27.025C53.97 27.0233 52.5 23.5495 52.5 20.9998C52.5 19.2498 54.0068 15.7498 59.5 15.7498C65.0563 15.7498 68.25 23.0263 68.25 27.9998C70 20.9998 64.75 15.7498 64.75 15.7498C64.75 15.7498 59.5438 10.5593 52.5 15.7498C50.421 17.281 49.4375 19.0853 49.0245 20.3943C49.0158 20.5973 49 20.795 49 20.9998C49 25.6723 52.122 29.7743 56.98 29.7743V29.7743Z" fill="#311B92"/>
<path d="M52.5001 15.75C59.5439 10.5595 64.7501 15.75 64.7501 15.75C64.7501 15.75 70.0001 21 68.2501 28C68.2501 34.2772 64.7816 37.7318 59.6016 38.3792C59.6174 38.3862 59.6296 38.3985 59.6436 38.4055C65.5446 37.8525 72.3346 35.364 72.2611 20.5677C72.2594 20.3192 72.2244 20.0952 72.1859 19.8747C72.5866 20.9895 72.9051 22.2057 73.1291 23.5217C71.6591 14.7525 65.9034 10.5 59.7311 10.5C53.0094 10.5 49.2766 14.784 49.0246 20.3927C49.4376 19.0838 50.4229 17.2812 52.5001 15.75H52.5001ZM31.5001 26.25C10.5001 26.25 12.1959 57.75 12.1959 57.75C12.1959 57.75 12.2501 63 14.0001 73.5H21.0001C19.2501 68.25 17.4459 57.75 17.4459 57.75C17.4459 57.75 10.5001 26.25 31.5001 26.25Z" fill="#673AB7"/>
<path d="M72.1857 19.8711C72.2224 20.0933 72.2592 20.3173 72.2609 20.5641C72.3344 35.3638 65.5427 37.8488 59.64 38.4018C51.4797 38.4036 43.3125 26.2498 31.5 26.2498C10.5 26.2498 17.4457 57.7498 17.4457 57.7498C17.4457 57.7498 19.25 68.2498 21 73.4998L35 73.5034C31.5 66.5034 23.6022 38.5033 35 38.5033C39.3522 38.5033 45.626 47.2498 56 47.2498C70.0175 47.2498 73.5 36.0428 73.5 28.0436C73.4982 24.8796 73.0152 22.1688 72.1857 19.8711Z" fill="#FF80AB"/>
<path d="M45.0765 40.1139C44.5953 40.8489 43.4245 40.9206 42.4393 40.2836C41.461 39.6519 41.0603 38.5424 41.538 37.8126C42.0123 37.0794 43.1865 37.0076 44.1648 37.6464C45.1465 38.2746 45.5455 39.3824 45.0765 40.1139V40.1139ZM34.9773 73.4024C33.4863 73.8661 31.8027 72.6446 31.1727 70.6601C30.548 68.6879 31.2498 66.7121 32.7303 66.2554C34.2055 65.7829 35.8977 67.0131 36.5155 68.9924C37.1508 70.9629 36.449 72.9316 34.9773 73.4024ZM46.3855 35.8824C46.8195 35.1299 47.8975 34.9251 48.7988 35.4379C49.7018 35.9436 50.0885 36.9796 49.658 37.7374C49.224 38.4934 48.1478 38.6964 47.2465 38.1854C46.3435 37.6674 45.9568 36.6401 46.3855 35.8824L46.3855 35.8824Z" fill="#C51162"/>
<path d="M49.4253 41.8052C48.5874 41.5644 47.7495 41.9211 47.5539 42.602C47.3582 43.2829 47.8788 44.0301 48.7167 44.2709C49.5545 44.5116 50.3924 44.1549 50.5881 43.474C50.7837 42.7931 50.2631 42.046 49.4253 41.8052Z" fill="#C51162"/>
<path d="M52.5437 39.3402C52.7344 38.6594 53.5832 38.3024 54.4127 38.5404C55.2509 38.7854 55.7689 39.5344 55.5677 40.2187C55.3717 40.9012 54.5352 41.2634 53.7022 41.0202C52.8587 40.7769 52.3459 40.0314 52.5437 39.3402V39.3402ZM54.5037 45.8747C53.7302 45.8134 53.1562 45.2674 53.2034 44.6392C53.2489 44.0144 53.9052 43.5507 54.6752 43.6067C55.4434 43.6644 56.0157 44.2192 55.9702 44.8474C55.9229 45.4687 55.2597 45.9272 54.5037 45.8747ZM59.5349 41.9372C58.7614 41.8759 58.1874 41.3299 58.2347 40.7017C58.2802 40.0769 58.9364 39.6132 59.7064 39.6692C60.4747 39.7269 61.0469 40.2817 61.0014 40.9099C60.9542 41.5312 60.2909 41.9897 59.5349 41.9372ZM59.9934 45.5089C59.2514 45.7049 58.5182 45.3969 58.3537 44.7897C58.1892 44.1789 58.6442 43.5314 59.3862 43.3197C60.1194 43.1132 60.8527 43.4369 61.0259 44.0442C61.2044 44.6427 60.7337 45.2989 59.9934 45.5089ZM63.3167 39.5729C63.1714 39.0532 63.5722 38.4879 64.2074 38.3094C64.8497 38.1274 65.4919 38.4057 65.6337 38.9289C65.7842 39.4469 65.3764 40.0209 64.7429 40.2012C64.0989 40.3762 63.4672 40.1032 63.3167 39.5729V39.5729ZM64.9284 43.5192C64.2967 43.6977 63.6527 43.4124 63.5074 42.8979C63.3692 42.3764 63.7594 41.8094 64.4052 41.6222C65.0404 41.4454 65.6792 41.7307 65.8279 42.2487C65.9697 42.7667 65.5689 43.3354 64.9284 43.5192ZM67.1772 37.7722C66.9637 37.4904 67.0827 37.0547 67.4274 36.7939C67.7722 36.5332 68.2254 36.5577 68.4389 36.8377C68.6402 37.1229 68.5369 37.5604 68.1887 37.8124C67.8387 38.0749 67.3942 38.0557 67.1772 37.7722ZM68.6629 40.3412C68.3234 40.5967 67.8702 40.5757 67.6619 40.2922C67.4502 40.0174 67.5569 39.5764 67.9104 39.3192C68.2517 39.0637 68.7102 39.0812 68.9079 39.3594C69.1267 39.6499 69.0217 40.0839 68.6629 40.3412L68.6629 40.3412ZM70.9519 37.2157C70.6737 37.5412 70.2274 37.6147 69.9544 37.3854C69.6989 37.1474 69.7094 36.6994 69.9999 36.3792C70.2747 36.0484 70.7297 35.9784 70.9957 36.2129C71.2512 36.4422 71.2407 36.8867 70.9519 37.2157L70.9519 37.2157ZM31.1464 64.1149C29.8269 64.3914 28.4794 63.2084 28.0962 61.4497C27.7182 59.7032 28.4812 58.0652 29.7902 57.7922C31.0957 57.5069 32.4519 58.6969 32.8229 60.4522C33.2114 62.1934 32.4484 63.8279 31.1464 64.1149H31.1464ZM26.0942 73.3252C24.6802 73.6227 23.2347 72.3522 22.8252 70.4674C22.4192 68.5949 23.2382 66.8379 24.6417 66.5457C26.0417 66.2394 27.4942 67.5152 27.8932 69.3947C28.3062 71.2654 27.4889 73.0189 26.0942 73.3252L26.0942 73.3252ZM23.0667 64.4597C21.7297 64.5699 20.5449 63.2329 20.3839 61.4497C20.2264 59.6769 21.1819 58.1527 22.5084 58.0477C23.8314 57.9252 25.0232 59.2674 25.1754 61.0454C25.3417 62.8129 24.3879 64.3337 23.0667 64.4597V64.4597ZM20.5309 54.9729C19.2867 54.9694 18.2962 53.6412 18.2857 51.9787C18.2804 50.3302 19.2832 48.9932 20.5187 49.0002C21.7542 48.9914 22.7499 50.3284 22.7499 51.9804C22.7657 53.6307 21.7647 54.9607 20.5309 54.9729L20.5309 54.9729ZM27.9334 55.9827C26.7014 56.1577 25.5307 54.9834 25.2857 53.3384C25.0459 51.7057 25.8474 50.2392 27.0724 50.0729C28.2922 49.8892 29.4682 51.0704 29.7027 52.7049C29.9547 54.3359 29.1514 55.7972 27.9334 55.9827V55.9827ZM20.2667 45.7049C19.1344 45.5282 18.4204 44.1807 18.6462 42.6669C18.8737 41.1672 19.9744 40.0909 21.0962 40.2712C22.2214 40.4392 22.9389 41.7954 22.7044 43.2987C22.4892 44.8002 21.3902 45.8694 20.2667 45.7049V45.7049ZM21.3307 37.8124C20.4434 37.2822 20.2999 35.9119 20.9982 34.7202C21.6947 33.5389 22.9774 33.0087 23.8577 33.5389C24.7414 34.0587 24.8849 35.4359 24.1849 36.6172C23.4972 37.8037 22.2162 38.3252 21.3307 37.8124V37.8124ZM27.2527 38.5124C26.5614 37.6829 26.9079 36.3197 28.0227 35.4412C29.1322 34.5679 30.5917 34.5294 31.2742 35.3537C31.9637 36.1762 31.6154 37.5447 30.5024 38.4144C29.4017 39.2964 27.9474 39.3297 27.2527 38.5124V38.5124ZM25.3487 31.8484C24.9427 31.0557 25.4624 29.9619 26.5124 29.3844C27.5572 28.8104 28.7314 28.9837 29.1339 29.7677C29.5399 30.5534 29.0184 31.6507 27.9702 32.2212C26.9307 32.8022 25.7582 32.6272 25.3487 31.8484ZM32.8894 29.6032C33.0959 28.7387 34.2019 28.2434 35.3744 28.4849C36.5417 28.7282 37.3222 29.6224 37.1192 30.4817C36.9162 31.3427 35.8084 31.8344 34.6394 31.5894C33.4722 31.3567 32.6952 30.4607 32.8894 29.6032ZM40.5264 31.8659C40.8904 31.1782 41.9317 31.0014 42.8714 31.4617C43.8059 31.9219 44.2697 32.8477 43.9144 33.5284C43.5539 34.2127 42.5092 34.3894 41.5747 33.9292C40.6384 33.4742 40.1764 32.5467 40.5264 31.8659V31.8659ZM34.5362 34.8847C34.7199 33.9519 35.8522 33.4147 37.0859 33.6719C38.3092 33.9274 39.1544 34.8882 38.9742 35.8122C38.7939 36.7414 37.6582 37.2787 36.4314 37.0162C35.2064 36.7677 34.3664 35.8069 34.5362 34.8847H34.5362ZM26.3444 47.1819C25.2069 47.0524 24.4387 45.7364 24.6014 44.2139C24.7659 42.7054 25.8229 41.5854 26.9517 41.7184C28.0822 41.8392 28.8539 43.1657 28.6842 44.6777C28.5284 46.1879 27.4732 47.3009 26.3444 47.1819V47.1819Z" fill="#C51162"/>
</svg>
