<svg width="84" height="84" viewBox="0 0 84 84" fill="none" xmlns="http://www.w3.org/2000/svg">
<g clip-path="url(#clip0)">
<path opacity="0.35" fill-rule="evenodd" clip-rule="evenodd" d="M38.8917 6.4958C39.7912 5.8273 40.8797 5.4668 41.9997 5.4668C43.1197 5.4668 44.2082 5.8273 45.1077 6.4958L51.5057 11.2558C51.6317 11.3503 51.7717 11.4203 51.9187 11.4693C52.0657 11.5183 52.2232 11.5428 52.3807 11.5393L60.3537 11.4483C61.4737 11.4343 62.5692 11.7843 63.4722 12.4423C64.3787 13.1003 65.0472 14.0348 65.3832 15.1023L67.7632 22.7113C67.8087 22.8618 67.8822 23.0018 67.9732 23.1278C68.0642 23.2538 68.1762 23.3658 68.3057 23.4568L74.8087 28.0698C75.7222 28.7173 76.4012 29.6413 76.7477 30.7088C77.0942 31.7728 77.0872 32.9208 76.7302 33.9848L74.1822 41.5413C74.1332 41.6883 74.1052 41.8458 74.1052 41.9998C74.1052 42.1538 74.1297 42.3113 74.1822 42.4583L76.7302 50.0148C77.0872 51.0753 77.0942 52.2233 76.7477 53.2908C76.4012 54.3548 75.7222 55.2823 74.8087 55.9298L68.3057 60.5428C68.1797 60.6338 68.0677 60.7423 67.9732 60.8718C67.8822 60.9978 67.8122 61.1378 67.7632 61.2883L65.3832 68.8973C65.0507 69.9648 64.3787 70.8993 63.4722 71.5573C62.5657 72.2153 61.4737 72.5653 60.3537 72.5513L52.3807 72.4603C52.2232 72.4568 52.0692 72.4813 51.9187 72.5303C51.7717 72.5793 51.6317 72.6493 51.5057 72.7438L45.1077 77.5038C44.2082 78.1723 43.1197 78.5328 41.9997 78.5328C40.8797 78.5328 39.7912 78.1723 38.8917 77.5038L32.4937 72.7438C32.3677 72.6493 32.2277 72.5793 32.0807 72.5303C31.9337 72.4813 31.7762 72.4568 31.6187 72.4603L23.6457 72.5513C22.5257 72.5653 21.4302 72.2153 20.5272 71.5573C19.6207 70.8993 18.9522 69.9648 18.6162 68.8973L16.2362 61.2883C16.1907 61.1378 16.1172 60.9978 16.0262 60.8718C15.9352 60.7458 15.8232 60.6338 15.6937 60.5428L9.19072 55.9298C8.27722 55.2823 7.59823 54.3583 7.25173 53.2908C6.90523 52.2268 6.91222 51.0788 7.26922 50.0148L9.81722 42.4583C9.87322 42.3113 9.89772 42.1573 9.89772 41.9998C9.89772 41.8423 9.87322 41.6883 9.82072 41.5413L7.27272 33.9848C6.91572 32.9243 6.90872 31.7763 7.25522 30.7088C7.60172 29.6448 8.28072 28.7208 9.19422 28.0733L15.6972 23.4603C15.8232 23.3658 15.9352 23.2573 16.0297 23.1313C16.1207 23.0053 16.1907 22.8653 16.2397 22.7148L18.6197 15.1058C18.9522 14.0383 19.6242 13.1038 20.5307 12.4458C21.4372 11.7878 22.5292 11.4378 23.6492 11.4518L31.6222 11.5428C31.7797 11.5463 31.9337 11.5218 32.0842 11.4728C32.2312 11.4238 32.3712 11.3538 32.4972 11.2593L38.8917 6.4958Z" fill="#C83B50"/>
<path d="M34.5967 49.0244V34.7689C34.5967 33.3584 35.7412 32.2139 37.1517 32.2139H42.0237C43.0877 32.2139 43.9522 33.0784 43.9522 34.1424C43.9522 35.2064 43.0877 36.0709 42.0237 36.0709H38.7827V39.8719H41.7332C42.7307 39.8719 43.5392 40.6804 43.5392 41.6779C43.5392 42.6754 42.7307 43.4839 41.7332 43.4839H38.7827V47.6384H42.3527C43.4167 47.6384 44.2812 48.5029 44.2812 49.5669V49.6509C44.2812 50.7149 43.4167 51.5794 42.3527 51.5794H37.1517C35.7412 51.5794 34.5967 50.4349 34.5967 49.0244V49.0244Z" fill="#C83B50"/>
<path d="M27.7795 51.7864C26.6315 51.7864 25.6025 51.0759 25.193 50.0014L21.385 39.9984H21.3045L21.3955 49.8859C21.406 50.9324 20.559 51.7829 19.516 51.7829H19.3795C18.3435 51.7864 17.5 50.9429 17.5 49.9034V35.1894C17.5 33.6599 18.739 32.4209 20.2685 32.4209H20.3945C21.5495 32.4209 22.5855 33.1384 22.988 34.2234L26.775 44.3734H26.8555L26.7855 34.3144C26.7785 33.2714 27.622 32.4209 28.665 32.4209C29.7045 32.4209 30.5445 33.2644 30.5445 34.3004V49.0144C30.548 50.5474 29.309 51.7864 27.7795 51.7864L27.7795 51.7864Z" fill="#C83B50"/>
<path d="M60.9447 51.5794H60.9342C59.5867 51.5794 58.4317 50.6169 58.1867 49.2904L56.2302 38.5874H56.1742L54.2352 49.2834C53.9937 50.6099 52.8387 51.5759 51.4877 51.5759C50.1437 51.5759 48.9922 50.6204 48.7437 49.3009L45.9892 34.6394C45.7512 33.3794 46.7207 32.2139 48.0017 32.2139H48.2257C49.2407 32.2139 50.1017 32.9559 50.2522 33.9604L51.9917 45.6959H52.1002L53.8782 34.3139C54.0672 33.1064 55.1067 32.2139 56.3317 32.2139C57.5497 32.2139 58.5857 33.0959 58.7817 34.2964L60.6332 45.6959H60.7137L62.4287 33.9639C62.5757 32.9594 63.4367 32.2139 64.4552 32.2139C65.7397 32.2139 66.7057 33.3794 66.4677 34.6429L63.6922 49.3044C63.4402 50.6239 62.2852 51.5794 60.9447 51.5794V51.5794Z" fill="#C83B50"/>
</g>
<defs>
<clipPath id="clip0">
<rect width="84" height="84" fill="white"/>
</clipPath>
</defs>
</svg>
