<svg width="84" height="84" viewBox="0 0 84 84" fill="none" xmlns="http://www.w3.org/2000/svg">
<g clip-path="url(#clip0)">
<path d="M79.9078 34.3244L69.1453 13.6604C67.8083 11.0914 64.6303 10.0869 62.0648 11.4274C59.4923 12.7679 58.4948 15.9389 59.8318 18.5079L60.2588 19.3304L34.1488 26.7609C31.1213 27.6219 27.9888 27.9299 24.8493 28.1644C24.6218 28.1819 24.3943 28.2414 24.1633 28.2694C22.6023 20.4539 15.4868 17.4999 10.4993 17.4999C8.57782 17.4999 7.02732 19.0504 7.01332 20.9719C6.99932 22.8969 8.54982 24.4684 10.4748 24.4999C12.0113 24.5244 16.7468 25.0949 17.3768 30.3659C16.1798 30.9889 15.0073 31.7029 13.9013 32.6094C9.90782 35.8854 7.53132 40.7294 7.12532 45.7799C6.68082 45.9269 6.24332 46.1089 5.83382 46.3819C3.42232 47.9884 2.77132 51.2504 4.37782 53.6619L11.3778 64.1619C12.3928 65.6809 14.0588 66.4999 15.7528 66.4999C16.7538 66.4999 17.7653 66.2129 18.6613 65.6179C18.8713 65.4779 19.0498 65.3099 19.2353 65.1454C21.2198 65.9259 23.3198 66.4019 25.4653 66.4964C24.8773 64.8514 24.4993 63.1014 24.4993 61.2499C24.4993 52.5524 31.5518 45.4999 40.2493 45.4999C45.3628 45.4999 49.8638 47.9779 52.7408 51.7544L71.2138 40.0434C72.2253 41.2824 73.7023 42.0034 75.2563 42.0034C76.0718 42.0034 76.9013 41.8109 77.6748 41.4084C80.2473 40.0679 81.2448 36.8969 79.9078 34.3244H79.9078Z" fill="#FF8B14"/>
<path opacity="0.35" d="M40.25 77C48.9485 77 56 69.9485 56 61.25C56 52.5515 48.9485 45.5 40.25 45.5C31.5515 45.5 24.5 52.5515 24.5 61.25C24.5 69.9485 31.5515 77 40.25 77Z" fill="#FF8B14"/>
<path d="M40.25 70C45.0825 70 49 66.0825 49 61.25C49 56.4175 45.0825 52.5 40.25 52.5C35.4175 52.5 31.5 56.4175 31.5 61.25C31.5 66.0825 35.4175 70 40.25 70Z" fill="#FF8B14"/>
</g>
<defs>
<clipPath id="clip0">
<rect width="84" height="84" fill="white"/>
</clipPath>
</defs>
</svg>
