<svg version="1.1" xmlns="http://www.w3.org/2000/svg" xmlns:xlink="http://www.w3.org/1999/xlink" viewBox="0 0 172 172"><g fill="none" fill-rule="nonzero" stroke="none" stroke-width="none" stroke-linecap="none" stroke-linejoin="none" stroke-miterlimit="10" stroke-dasharray="" stroke-dashoffset="0" font-family="none" font-weight="none" font-size="none" text-anchor="none" style="mix-blend-mode: normal"><path d="M0,172v-172h172v172z" fill="none" stroke="none" stroke-width="1" stroke-linecap="butt" stroke-linejoin="miter"></path><g><path d="M89.44,172c-4.77472,0 -9.02484,-3.0358 -10.57456,-7.55252l0.62436,-16.63068c-2.71416,-0.66048 -5.37672,-1.49812 -7.97564,-2.50948l-16.43976,11.6444c-1.92124,1.39836 -4.19508,2.13968 -6.57728,2.13968c-2.30996,0 -4.53048,-0.70004 -6.42076,-2.0296c-3.90096,-2.73136 -5.6416,-7.65056 -4.32408,-12.2378l3.8528,-13.41256c-1.83696,-2.09496 -3.53632,-4.3086 -5.08604,-6.62888l-14.1556,0.25112c-4.68528,0 -8.90788,-2.9584 -10.50748,-7.35988c-1.63056,-4.48404 -0.2322,-9.51504 3.47956,-12.51472l10.84632,-8.77372c-0.25284,-2.31684 -0.38184,-4.63712 -0.38184,-6.94536c0,-2.30824 -0.25456,-6.28488 0,-8.6l-10.32,-8.6c-3.70832,-2.99624 -5.25288,-6.54804 -3.6206,-11.0338c1.5996,-4.40148 5.8222,-7.35816 10.50576,-7.35816l14.1556,0.25112c1.54972,-2.322 3.24736,-4.53564 5.08604,-6.62888l-3.8528,-13.41256c-1.31752,-4.58724 0.42484,-9.50644 4.3344,-12.24468c1.87308,-1.32096 4.09704,-2.02444 6.41044,-2.02444c2.38048,0 4.65776,0.74304 6.58244,2.14312l11.27632,8.2044c2.59892,-1.01308 5.26148,-1.85072 7.97564,-2.5112l4.53736,-13.19756c1.54456,-4.51156 5.79468,-7.54736 10.5694,-7.54736c4.77472,0 10.74484,3.0358 12.29456,7.55252l4.53564,13.19068c2.71416,0.66048 3.65672,1.49812 6.25564,2.50948l11.27976,-8.2044c1.92124,-1.39836 4.1968,-2.1414 6.579,-2.1414c2.3134,0 4.53736,0.70348 6.42764,2.03648c3.89236,2.7262 5.633,7.6454 4.31548,12.23264l-5.24772,17.544c1.83696,2.09496 1.89028,-0.602 3.44,1.72l17.14668,0.52632l0.15308,0.00344c4.72312,0.08256 8.8064,2.97044 10.40084,7.35472c1.63228,4.48748 0.23392,9.51848 -3.47956,12.51816l-10.84632,8.77372c0.25628,2.31512 0.38528,4.6354 0.38528,6.94364c0,2.30824 -0.129,4.62852 -0.38356,6.94364l10.84976,8.77716c3.70832,2.99624 5.10668,8.02724 3.47612,12.513c-1.60132,4.40148 -5.69492,7.28764 -10.42664,7.35644l-14.23472,-0.2494c-1.54972,2.322 -3.24736,4.53564 -5.08604,6.62888l3.8528,13.41256c1.31752,4.58724 -0.30788,9.68016 -4.3344,12.24468c-3.87,2.46476 -9.3482,1.2814 -11.27288,-0.11868l-11.27632,-8.2044c-2.59892,1.01308 -6.98148,1.85072 -9.69564,2.5112l-4.53736,13.19756c-1.54628,4.51156 -5.7964,7.54736 -10.57112,7.54736z" fill="#000000" stroke="none" stroke-width="1" stroke-linecap="butt" stroke-linejoin="miter" opacity="0.35"></path><path d="M86,168.56c-4.77472,0 -9.02484,-3.0358 -10.57456,-7.55252l-4.53564,-13.19068c-2.71416,-0.66048 -5.37672,-1.49812 -7.97564,-2.50948l-11.27976,8.2044c-1.92124,1.39836 -4.19508,2.13968 -6.57728,2.13968c-2.30996,0 -4.53048,-0.70004 -6.42076,-2.0296c-3.90096,-2.73136 -5.6416,-7.65056 -4.32408,-12.2378l3.8528,-13.41256c-1.83696,-2.09496 -3.53632,-4.3086 -5.08604,-6.62888l-14.1556,0.25112c-4.68528,0 -8.90788,-2.9584 -10.50748,-7.35988c-1.63056,-4.48404 -0.2322,-9.51504 3.47956,-12.51472l10.84632,-8.77372c-0.25284,-2.31684 -0.38184,-4.63712 -0.38184,-6.94536c0,-2.30824 0.129,-4.62852 0.38356,-6.94364l-10.84976,-8.77716c-3.70832,-2.99624 -5.10668,-8.02724 -3.47612,-12.513c1.5996,-4.40148 5.8222,-7.35816 10.50576,-7.35816l14.1556,0.25112c1.54972,-2.322 3.24736,-4.53564 5.08604,-6.62888l-3.8528,-13.41256c-1.31752,-4.58724 0.42484,-9.50644 4.3344,-12.24468c1.87308,-1.32096 4.09704,-2.02444 6.41044,-2.02444c2.38048,0 4.65776,0.74304 6.58244,2.14312l11.27632,8.2044c2.59892,-1.01308 5.26148,-1.85072 7.97564,-2.5112l4.53736,-13.19756c1.54628,-4.51156 5.7964,-7.54736 10.57112,-7.54736c4.77472,0 9.02484,3.0358 10.57456,7.55252l4.53564,13.19068c2.71416,0.66048 5.37672,1.49812 7.97564,2.50948l11.27976,-8.2044c1.92124,-1.39836 4.1968,-2.1414 6.579,-2.1414c2.3134,0 4.53736,0.70348 6.42764,2.03648c3.89236,2.7262 5.633,7.6454 4.31548,12.23264l-3.8528,13.41256c1.83696,2.09496 3.53632,4.3086 5.08604,6.62888l14.10744,-0.25112l0.15308,0.00344c4.72312,0.08256 8.8064,2.97044 10.40084,7.35472c1.63228,4.48748 0.23392,9.51848 -3.47956,12.51816l-10.84632,8.77372c0.25456,2.31512 0.38356,4.6354 0.38356,6.94364c0,2.30824 -0.129,4.62852 -0.38356,6.94364l10.84976,8.77716c3.70832,2.99624 5.10668,8.02724 3.47612,12.513c-1.60132,4.40148 -5.69492,7.28764 -10.42664,7.35644l-14.23472,-0.2494c-1.54972,2.322 -3.24736,4.53564 -5.08604,6.62888l3.8528,13.41256c1.31752,4.58724 -0.42484,9.50644 -4.3344,12.24468c-1.88168,1.32096 -4.1022,2.02272 -6.41216,2.02272c-2.38048,0 -4.65776,-0.74132 -6.58072,-2.1414l-11.27632,-8.2044c-2.59892,1.01308 -5.26148,1.85072 -7.97564,2.5112l-4.53736,13.19756c-1.54628,4.51156 -5.7964,7.54736 -10.57112,7.54736z" fill="#f2f2f2" stroke="none" stroke-width="1" stroke-linecap="butt" stroke-linejoin="miter"></path><path d="M132.6206,110.0456l20.45596,0.36808l-15.90656,-12.86732c0.83592,-3.71692 1.29,-7.57832 1.29,-11.54636c0,-3.96804 -0.4558,-7.82944 -1.29,-11.54636l15.90656,-12.86732l-20.45596,0.36808c-2.88272,-5.57796 -6.7252,-10.57972 -11.3262,-14.7662l5.64848,-19.6596l-16.54296,12.0314c-5.42488,-2.8552 -11.40876,-4.78332 -17.74524,-5.58656l-6.65468,-19.35344l-6.65296,19.35516c-6.3382,0.80324 -12.32208,2.72964 -17.74524,5.58656l-16.54296,-12.0314l5.64848,19.6596c-4.601,4.18648 -8.44348,9.18824 -11.3262,14.7662l-20.45596,-0.36808l15.90656,12.86732c-0.83592,3.7152 -1.29172,7.57488 -1.29172,11.54464c0,3.96976 0.4558,7.82944 1.29,11.54636l-15.90656,12.86732l20.45596,-0.36808c2.88272,5.57796 6.7252,10.57972 11.3262,14.7662l-5.64848,19.6596l16.54296,-12.0314c5.42488,2.8552 11.40876,4.78332 17.74524,5.58656l6.65468,19.35344l6.65296,-19.35516c6.3382,-0.80324 12.32208,-2.73136 17.74524,-5.58656l16.54296,12.0314l-5.64848,-19.6596c4.60272,-4.18476 8.44348,-9.18652 11.32792,-14.76448z" fill="#9aa2e6" stroke="none" stroke-width="1" stroke-linecap="butt" stroke-linejoin="miter"></path><circle cx="45.5" cy="44.5" transform="scale(1.72,1.72)" r="1.5" fill="#40396e" stroke="none" stroke-width="1" stroke-linecap="butt" stroke-linejoin="miter"></circle><circle cx="54.5" cy="44.5" transform="scale(1.72,1.72)" r="1.5" fill="#40396e" stroke="none" stroke-width="1" stroke-linecap="butt" stroke-linejoin="miter"></circle><circle cx="72.5" cy="44.5" transform="scale(1.72,1.72)" r="1.5" fill="#40396e" stroke="none" stroke-width="1" stroke-linecap="butt" stroke-linejoin="miter"></circle><circle cx="63.5" cy="44.5" transform="scale(1.72,1.72)" r="1.5" fill="#40396e" stroke="none" stroke-width="1" stroke-linecap="butt" stroke-linejoin="miter"></circle><circle cx="27.5" cy="44.5" transform="scale(1.72,1.72)" r="1.5" fill="#40396e" stroke="none" stroke-width="1" stroke-linecap="butt" stroke-linejoin="miter"></circle><path d="M32.68,86c0.1118,3.36432 1.4362,8.37124 2.15,11.54636l-15.90656,12.86732l20.45596,-0.36808c2.88272,5.57796 6.7252,10.57972 11.3262,14.7662l-5.64848,19.6596l16.54296,-12.0314c5.42488,2.8552 11.40876,4.78332 17.74524,5.58656l6.65468,19.35344l6.65296,-19.35516c6.3382,-0.80324 12.32208,-2.73136 17.74524,-5.58656l16.54296,12.0314l-5.64848,-19.6596c4.601,-4.18648 8.44348,-9.18824 11.3262,-14.7662l20.45596,0.36808l-15.90656,-12.86732c0.71552,-3.1734 0.31992,-8.18032 0.43172,-11.54464z" fill="#707cc0" stroke="none" stroke-width="1" stroke-linecap="butt" stroke-linejoin="miter"></path><circle cx="36.5" cy="44.5" transform="scale(1.72,1.72)" r="1.5" fill="#40396e" stroke="none" stroke-width="1" stroke-linecap="butt" stroke-linejoin="miter"></circle><circle cx="45.5" cy="55.5" transform="scale(1.72,1.72)" r="1.5" fill="#40396e" stroke="none" stroke-width="1" stroke-linecap="butt" stroke-linejoin="miter"></circle><circle cx="54.5" cy="55.5" transform="scale(1.72,1.72)" r="1.5" fill="#40396e" stroke="none" stroke-width="1" stroke-linecap="butt" stroke-linejoin="miter"></circle><circle cx="72.5" cy="55.5" transform="scale(1.72,1.72)" r="1.5" fill="#40396e" stroke="none" stroke-width="1" stroke-linecap="butt" stroke-linejoin="miter"></circle><circle cx="63.5" cy="55.5" transform="scale(1.72,1.72)" r="1.5" fill="#40396e" stroke="none" stroke-width="1" stroke-linecap="butt" stroke-linejoin="miter"></circle><circle cx="27.5" cy="55.5" transform="scale(1.72,1.72)" r="1.5" fill="#40396e" stroke="none" stroke-width="1" stroke-linecap="butt" stroke-linejoin="miter"></circle><circle cx="36.5" cy="55.5" transform="scale(1.72,1.72)" r="1.5" fill="#40396e" stroke="none" stroke-width="1" stroke-linecap="butt" stroke-linejoin="miter"></circle><path d="M132.6206,110.0456l20.45596,0.36808l-15.90656,-12.86732c0.83592,-3.71692 1.29,-7.57832 1.29,-11.54636c0,-3.96804 -0.4558,-7.82944 -1.29,-11.54636l15.90656,-12.86732l-20.45596,0.36808c-2.88272,-5.57796 -6.7252,-10.57972 -11.3262,-14.7662l5.64848,-19.6596l-16.54296,12.0314c-5.42488,-2.8552 -11.40876,-4.78332 -17.74524,-5.58656l-6.65468,-19.35344l-6.65296,19.35516c-6.3382,0.80324 -12.32208,2.72964 -17.74524,5.58656l-16.54296,-12.0314l5.64848,19.6596c-4.601,4.18648 -8.44348,9.18824 -11.3262,14.7662l-20.45596,-0.36808l15.90656,12.86732c-0.83592,3.7152 -1.29172,7.57488 -1.29172,11.54464c0,3.96976 0.4558,7.82944 1.29,11.54636l-15.90656,12.86732l20.45596,-0.36808c2.88272,5.57796 6.7252,10.57972 11.3262,14.7662l-5.64848,19.6596l16.54296,-12.0314c5.42488,2.8552 11.40876,4.78332 17.74524,5.58656l6.65468,19.35344l6.65296,-19.35516c6.3382,-0.80324 12.32208,-2.73136 17.74524,-5.58656l16.54296,12.0314l-5.64848,-19.6596c4.60272,-4.18476 8.44348,-9.18652 11.32792,-14.76448z" fill="none" stroke="#40396e" stroke-width="5.16" stroke-linecap="round" stroke-linejoin="round"></path></g></g></svg>