<svg version="1.1" xmlns="http://www.w3.org/2000/svg" xmlns:xlink="http://www.w3.org/1999/xlink" viewBox="0 0 171 171"><g fill="none" fill-rule="nonzero" stroke="none" stroke-width="1" stroke-linecap="butt" stroke-linejoin="miter" stroke-miterlimit="10" stroke-dasharray="" stroke-dashoffset="0" font-family="none" font-weight="none" font-size="none" text-anchor="none" style="mix-blend-mode: normal"><path d="M0,171.98863v-171.98863h171.98863v171.98863z" fill="none"></path><g><path d="M72.14063,100.62281v11.59594h26.71875v-11.59594c7.98891,-4.62234 13.35938,-13.2525 13.35938,-23.13844c0,-14.74875 -11.97,-26.71875 -26.71875,-26.71875c-14.74875,0 -26.71875,11.97 -26.71875,26.71875c0,9.88594 5.37047,18.51609 13.35938,23.13844z" fill="#54febd"></path><path d="M160.3125,171c-5.89429,0 -10.6875,-4.79449 -10.6875,-10.6875c0,-5.89301 4.79321,-10.6875 10.6875,-10.6875c5.89429,0 10.6875,4.79449 10.6875,10.6875c0,5.89301 -4.79321,10.6875 -10.6875,10.6875zM160.3125,154.96875c-2.94585,0 -5.34375,2.39659 -5.34375,5.34375c0,2.94716 2.3979,5.34375 5.34375,5.34375c2.94585,0 5.34375,-2.39659 5.34375,-5.34375c0,-2.94716 -2.3979,-5.34375 -5.34375,-5.34375z" fill="#1d1b4c"></path><path d="M160.3125,154.96875c-0.68363,0 -1.36725,-0.26094 -1.8891,-0.78278l-19.07625,-19.07756c-1.04371,-1.04371 -1.04371,-2.7345 0,-3.77819c1.04371,-1.04369 2.7345,-1.04371 3.77819,0l19.07625,19.07756c1.04371,1.04371 1.04371,2.7345 0,3.77819c-0.52184,0.52184 -1.20547,0.78278 -1.8891,0.78278z" fill="#1d1b4c"></path><path d="M152.29688,162.98438c-0.68363,0 -1.36725,-0.26094 -1.8891,-0.78278l-19.07625,-19.07756c-1.04371,-1.04371 -1.04371,-2.7345 0,-3.77819c1.04371,-1.04369 2.7345,-1.04371 3.77819,0l19.07625,19.07756c1.04371,1.04371 1.04371,2.7345 0,3.77819c-0.52184,0.52184 -1.20547,0.78278 -1.8891,0.78278z" fill="#1d1b4c"></path><path d="M125.3694,151.75285v0c-0.70973,0 -1.38812,-0.2818 -1.8891,-0.78278l-7.26154,-7.26416c-1.04371,-1.04371 -1.04371,-2.7345 0,-3.77819l23.71027,-23.71027c0.50098,-0.50098 1.17939,-0.78278 1.8891,-0.78278v0c0.70973,0 1.38812,0.2818 1.8891,0.78278l7.26154,7.26416c1.04371,1.04371 1.04371,2.7345 0,3.77819l-23.71027,23.71027c-0.50098,0.50098 -1.17939,0.78278 -1.8891,0.78278zM121.88602,141.81682l3.48335,3.48466l19.93208,-19.93077l-3.48335,-3.48466z" fill="#1d1b4c"></path><path d="M136.63875,125.95256c-0.68363,0 -1.36725,-0.26094 -1.8891,-0.78278l-13.97254,-13.97385c-1.04371,-1.04371 -1.04371,-2.7345 0,-3.77819c1.04371,-1.04369 2.7345,-1.04371 3.77819,0l13.97254,13.97385c1.04371,1.04371 1.04371,2.7345 0,3.77819c-0.52184,0.52184 -1.20547,0.78278 -1.8891,0.78278z" fill="#1d1b4c"></path><path d="M123.27938,139.31194c-0.68363,0 -1.36725,-0.26094 -1.8891,-0.78278l-11.06063,-11.06194c-1.04371,-1.04371 -1.04371,-2.7345 0,-3.77819c1.04371,-1.04369 2.7345,-1.04371 3.77819,0l11.06063,11.06194c1.04371,1.04371 1.04371,2.7345 0,3.77819c-0.52184,0.52184 -1.20547,0.78278 -1.8891,0.78278z" fill="#1d1b4c"></path><path d="M32.0625,48.09375c-0.68363,0 -1.36725,-0.26094 -1.8891,-0.78278l-10.28568,-10.28699c-9.32808,-9.32677 -16.17214,-20.95231 -19.78596,-33.61892c-0.26615,-0.93411 -0.00524,-1.93866 0.68363,-2.62359c0.6836,-0.68753 1.68296,-0.94846 2.6249,-0.67711c6.34308,1.81995 12.42002,4.4266 18.06385,7.74558c4.37049,2.55576 8.53488,5.60338 12.37308,9.05279c1.09849,0.98499 1.18981,2.67449 0.20352,3.77298c-0.9863,1.0998 -2.67709,1.1885 -3.77298,0.20092c-3.57206,-3.20809 -7.44419,-6.04044 -11.5068,-8.41745c-3.79123,-2.22963 -7.79121,-4.11349 -11.94256,-5.62686c3.60861,9.89037 9.3646,18.94317 16.83752,26.41346l10.28568,10.28699c1.04371,1.04371 1.04371,2.7345 0,3.77819c-0.52184,0.52184 -1.20547,0.78278 -1.8891,0.78278z" fill="#1d1b4c"></path><path d="M10.6875,171c-5.89429,0 -10.6875,-4.79449 -10.6875,-10.6875c0,-5.89301 4.79321,-10.6875 10.6875,-10.6875c5.89429,0 10.6875,4.79449 10.6875,10.6875c0,5.89301 -4.79321,10.6875 -10.6875,10.6875zM10.6875,154.96875c-2.94585,0 -5.34375,2.39659 -5.34375,5.34375c0,2.94716 2.3979,5.34375 5.34375,5.34375c2.94585,0 5.34375,-2.39659 5.34375,-5.34375c0,-2.94716 -2.3979,-5.34375 -5.34375,-5.34375z" fill="#1d1b4c"></path><path d="M10.6875,154.96875c-0.68363,0 -1.36725,-0.26094 -1.8891,-0.78278c-1.04371,-1.04371 -1.04371,-2.7345 0,-3.77819l19.07625,-19.07756c1.04371,-1.04371 2.7345,-1.04371 3.77819,0c1.04369,1.04371 1.04371,2.7345 0,3.77819l-19.07625,19.07756c-0.52184,0.52184 -1.20547,0.78278 -1.8891,0.78278z" fill="#1d1b4c"></path><path d="M18.70313,162.98438c-0.68363,0 -1.36725,-0.26094 -1.8891,-0.78278c-1.04371,-1.04371 -1.04371,-2.7345 0,-3.77819l19.07625,-19.07756c1.04371,-1.04371 2.7345,-1.04371 3.77819,0c1.04369,1.04371 1.04371,2.7345 0,3.77819l-19.07625,19.07756c-0.52184,0.52184 -1.20547,0.78278 -1.8891,0.78278z" fill="#1d1b4c"></path><path d="M45.63063,151.75285c-0.70973,0 -1.38812,-0.2818 -1.8891,-0.78278l-23.71027,-23.71027c-1.04371,-1.04371 -1.04371,-2.7345 0,-3.77819l7.26154,-7.26416c1.00195,-1.00195 2.77624,-1.00195 3.77819,0l23.71027,23.71027c1.04371,1.04371 1.04371,2.7345 0,3.77819l-7.26154,7.26416c-0.50098,0.50098 -1.17939,0.78278 -1.8891,0.78278zM25.69852,125.37068l19.93208,19.93077l3.48335,-3.48466l-19.93208,-19.93077z" fill="#1d1b4c"></path><path d="M138.9375,48.09375c-0.68363,0 -1.36725,-0.26094 -1.8891,-0.78278c-1.04371,-1.04371 -1.04371,-2.7345 0,-3.77819l10.28568,-10.28699c7.47291,-7.4703 13.22891,-16.52309 16.83752,-26.41346c-4.15132,1.51338 -8.1513,3.39595 -11.93732,5.62293c-4.06782,2.38093 -7.93996,5.21328 -11.51201,8.42138c-1.09328,0.98499 -2.78407,0.89628 -3.77298,-0.20093c-0.9863,-1.09849 -0.89497,-2.78799 0.20352,-3.77298c3.8382,-3.44944 8.00259,-6.49704 12.37829,-9.05672c5.63859,-3.31505 11.71556,-5.9217 18.05864,-7.74165c0.94194,-0.26876 1.94128,-0.00783 2.6249,0.67711c0.68884,0.68494 0.94977,1.68948 0.68363,2.62359c-3.61382,12.66661 -10.45788,24.29215 -19.78596,33.61892l-10.28568,10.28699c-0.52187,0.52184 -1.2055,0.78278 -1.88912,0.78278z" fill="#1d1b4c"></path><path d="M47.72062,139.31194c-0.68363,0 -1.36725,-0.26094 -1.8891,-0.78278c-1.04371,-1.04371 -1.04371,-2.7345 0,-3.77819l11.06063,-11.06194c1.04371,-1.04371 2.7345,-1.04371 3.77819,0c1.04369,1.04371 1.04371,2.7345 0,3.77819l-11.06063,11.06194c-0.52184,0.52184 -1.20547,0.78278 -1.8891,0.78278z" fill="#1d1b4c"></path><path d="M34.36125,125.95256c-0.68363,0 -1.36725,-0.26094 -1.8891,-0.78278c-1.04371,-1.04371 -1.04371,-2.7345 0,-3.77819l13.97254,-13.97385c1.04371,-1.04371 2.7345,-1.04371 3.77819,0c1.04369,1.04371 1.04371,2.7345 0,3.77819l-13.97254,13.97385c-0.52184,0.52184 -1.20547,0.78278 -1.8891,0.78278z" fill="#1d1b4c"></path><path d="M85.5,154.96875c-0.56361,0 -1.12721,-0.17872 -1.60208,-0.53491c-34.13163,-25.59806 -54.50729,-66.35067 -54.50729,-109.01197v-37.40625c0,-1.47554 1.19505,-2.67187 2.67188,-2.67187h106.875c1.47683,0 2.67188,1.19633 2.67188,2.67188v37.40625c0,42.66129 -20.37567,83.41391 -54.50729,109.01197c-0.47487,0.35619 -1.03848,0.53491 -1.60208,0.53491zM34.73438,10.6875v34.73438c0,40.31557 18.94057,78.85684 50.76563,103.5156c31.82505,-24.65876 50.76563,-63.20002 50.76563,-103.5156v-34.73437z" fill="#1d1b4c"></path><path d="M85.5,141.25973c-0.621,0 -1.24461,-0.21656 -1.74559,-0.64841c-27.75723,-23.92945 -43.67629,-58.62468 -43.67629,-95.18945v-26.71875c0,-1.47554 1.19505,-2.67187 2.67188,-2.67187h85.5c1.47683,0 2.67188,1.19633 2.67188,2.67188v26.71875c0,36.56477 -15.91906,71.26 -43.67629,95.18945c-0.50098,0.43186 -1.12459,0.64841 -1.74559,0.64841zM45.42188,21.375v24.04688c0,34.23471 14.57788,66.76035 40.07813,89.60958c25.50024,-22.84923 40.07813,-55.37488 40.07813,-89.60958v-24.04687z" fill="#1d1b4c"></path><path d="M98.85938,104.20313h-26.71875c-1.47683,0 -2.67187,-1.19633 -2.67187,-2.67187v-10.10303c-8.27915,-5.39986 -13.35937,-14.69793 -13.35937,-24.63135c0,-16.20607 13.18455,-29.39062 29.39063,-29.39062c16.20607,0 29.39063,13.18455 29.39063,29.39063c0,9.93342 -5.08022,19.23149 -13.35937,24.63135v10.10303c0,1.47554 -1.19505,2.67188 -2.67187,2.67188zM74.8125,98.85938h21.375v-8.92364c0,-0.95367 0.50881,-1.8356 1.33332,-2.3131c7.41811,-4.29092 12.02606,-12.27133 12.02606,-20.82577c0,-13.25891 -10.78665,-24.04687 -24.04687,-24.04687c-13.26022,0 -24.04687,10.78796 -24.04687,24.04688c0,8.55444 4.60794,16.53484 12.02606,20.82574c0.82451,0.47749 1.33332,1.35942 1.33332,2.31312z" fill="#1d1b4c"></path><path d="M85.5,104.20313c-1.47683,0 -2.67187,-1.19633 -2.67187,-2.67187v-8.01562c0,-1.47554 1.19505,-2.67187 2.67188,-2.67187c1.47683,0 2.67188,1.19633 2.67188,2.67188v8.01563c0,1.47554 -1.19505,2.67188 -2.67187,2.67188z" fill="#1d1b4c"></path><path d="M77.48438,69.46875c-0.68363,0 -1.36725,-0.26094 -1.8891,-0.78278l-5.34375,-5.34375c-1.04371,-1.04371 -1.04371,-2.7345 0,-3.77819c1.04371,-1.04369 2.7345,-1.04371 3.77819,0l5.34375,5.34375c1.04371,1.04371 1.04371,2.7345 0,3.77819c-0.52184,0.52184 -1.20547,0.78278 -1.8891,0.78278z" fill="#1d1b4c"></path><path d="M93.51563,69.46875c-0.68363,0 -1.36725,-0.26094 -1.8891,-0.78278c-1.04371,-1.04371 -1.04371,-2.7345 0,-3.77819l5.34375,-5.34375c1.04371,-1.04371 2.7345,-1.04371 3.77819,0c1.04369,1.04371 1.04371,2.7345 0,3.77819l-5.34375,5.34375c-0.52184,0.52184 -1.20547,0.78278 -1.8891,0.78278z" fill="#1d1b4c"></path><path d="M85.5,32.0625c-0.69407,0 -1.39074,-0.29484 -1.89692,-0.77495c-0.4827,-0.5075 -0.77495,-1.20285 -0.77495,-1.89692c0,-0.69536 0.29225,-1.38943 0.77495,-1.89692c0.96022,-0.96281 2.80493,-0.98891 3.79385,0c0.48011,0.5075 0.77495,1.20157 0.77495,1.89692c0,0.69407 -0.29484,1.38943 -0.77495,1.89692c-0.50881,0.48011 -1.20285,0.77495 -1.89692,0.77495z" fill="#1d1b4c"></path><path d="M96.1875,32.0625c-0.69407,0 -1.39074,-0.29484 -1.89692,-0.77495c-0.4827,-0.5075 -0.77495,-1.20285 -0.77495,-1.89692c0,-0.69536 0.29225,-1.38943 0.77495,-1.89692c0.98891,-0.98891 2.77886,-0.98891 3.79385,0c0.48011,0.5075 0.77495,1.20157 0.77495,1.89692c0,0.69407 -0.29484,1.38943 -0.77495,1.89692c-0.50881,0.48011 -1.20285,0.77495 -1.89692,0.77495z" fill="#1d1b4c"></path><path d="M74.8125,32.0625c-0.69407,0 -1.39074,-0.29484 -1.89692,-0.77495c-0.4827,-0.5075 -0.77495,-1.17546 -0.77495,-1.89692c0,-0.72146 0.26615,-1.38943 0.77495,-1.89692c1.01499,-0.98891 2.77886,-0.98891 3.79385,0c0.48011,0.5075 0.77495,1.20157 0.77495,1.89692c0,0.69407 -0.29484,1.38943 -0.77495,1.89692c-0.50881,0.48011 -1.20285,0.77495 -1.89692,0.77495z" fill="#1d1b4c"></path></g></g></svg>